<svg version="1.1" id="Layer_1" xmlns="http://www.w3.org/2000/svg" xmlns:xlink="http://www.w3.org/1999/xlink" x="0px" y="0px"
	 width="100%" viewBox="0 0 720 1600" enable-background="new 0 0 720 1600" xml:space="preserve">
<path fill="#F27500" opacity="1.000000" stroke="none" 
	d="
M104.000000,1601.000000 
	C69.333336,1601.000000 35.166668,1601.000000 1.000000,1601.000000 
	C1.000000,1067.666626 1.000000,534.333313 1.000000,1.000000 
	C241.000000,1.000000 481.000000,1.000000 721.000000,1.000000 
	C721.000000,534.333313 721.000000,1067.666626 721.000000,1601.000000 
	C515.500000,1601.000000 310.000000,1601.000000 104.000000,1601.000000 
M296.416595,1076.665161 
	C297.249329,1077.097534 298.082031,1077.529907 299.180542,1078.738525 
	C300.022858,1079.107666 300.863892,1079.795532 301.707672,1079.798950 
	C319.761505,1079.870728 337.815979,1079.914917 355.868927,1079.776001 
	C357.213409,1079.765625 358.546967,1078.336914 359.885590,1077.567627 
	C358.838928,1075.922852 357.792267,1074.278076 356.057343,1071.212524 
	C355.825348,1070.740234 355.593323,1070.267822 355.301300,1069.565186 
	C355.301300,1069.565186 355.594177,1069.529907 355.594177,1069.529907 
	C355.594177,1069.529907 355.555664,1069.817871 354.838654,1069.658447 
	C345.229462,1066.039795 335.570190,1062.545166 326.052124,1058.700928 
	C324.078094,1057.903687 321.005798,1055.482544 321.229370,1054.370605 
	C322.021179,1050.432129 318.808716,1049.707642 317.072021,1047.014648 
	C316.669464,1045.764648 316.130585,1044.540894 315.885315,1043.260742 
	C313.253052,1029.522583 310.748352,1015.759460 308.046112,1002.035156 
	C305.253693,987.852966 302.301239,973.702087 299.382629,959.544983 
	C296.495819,945.542114 293.974152,931.447632 290.562164,917.572876 
	C284.364777,892.371460 277.662628,867.293457 271.100342,842.182495 
	C266.786682,825.675903 262.253967,809.226074 258.010254,792.701843 
	C256.136871,785.407227 253.959518,778.059204 253.306046,770.613831 
	C252.346390,759.680298 252.834091,748.627625 252.286118,737.646545 
	C252.055405,733.023132 253.283218,731.391235 258.140869,730.936096 
	C275.984131,729.264404 293.776276,727.043579 311.581970,724.979919 
	C313.510254,724.756409 316.396393,724.847351 317.130707,723.699768 
	C319.786438,719.549683 323.604004,720.352844 327.332245,720.339233 
	C335.165100,720.310669 342.998169,720.329041 350.830933,720.287537 
	C352.418091,720.279114 354.004364,720.091309 355.933838,719.963501 
	C355.933838,717.774536 355.933868,716.132568 355.933868,714.490540 
	C355.933777,692.491211 355.933472,670.491943 355.933594,648.492615 
	C355.933655,639.659546 355.907166,630.826355 355.953674,621.993530 
	C355.966125,619.625732 355.889191,617.507812 352.113281,617.215637 
	C351.399841,616.908020 350.686401,616.600403 349.055939,616.120422 
	C314.750885,616.141846 280.445801,616.163269 246.007080,615.349243 
	C245.404831,609.096191 245.307022,602.738708 244.041016,596.623047 
	C243.024475,591.712341 242.107315,586.119141 235.962311,583.371338 
	C230.301514,575.959900 222.157379,573.485413 214.052261,572.718445 
	C210.939957,572.103455 210.842773,571.919556 211.467606,567.331360 
	C218.759262,570.366699 223.874008,567.290283 227.026596,560.911194 
	C228.897797,557.124878 230.365326,552.872742 230.794937,548.704346 
	C231.404236,542.792419 231.419464,536.702393 230.726227,530.801514 
	C229.779907,522.746094 231.381927,516.930176 240.360687,515.365845 
	C240.676743,515.310791 240.971436,515.105469 241.264038,514.947815 
	C248.080780,511.275818 248.327484,507.440796 241.753433,502.155884 
	C237.720505,501.318939 233.687576,500.481964 229.408691,499.123962 
	C223.936890,492.927002 217.722183,488.163208 209.111679,487.047852 
	C190.102966,484.585632 175.827957,493.625946 175.514740,513.163269 
	C175.467575,516.104492 177.269028,519.075317 178.377197,522.827332 
	C178.430084,523.909058 178.482971,524.990845 177.848907,526.471802 
	C174.090027,527.074463 173.313278,529.726685 174.324112,532.685242 
	C175.258499,535.420044 176.823990,538.019714 178.510986,540.395142 
	C180.341827,542.972900 182.634109,545.223022 184.688416,547.828369 
	C184.688416,547.828369 184.838837,547.982544 184.976898,548.518250 
	C185.336212,548.926453 185.695526,549.334595 186.042252,549.913391 
	C186.042252,549.913391 186.130859,550.059753 186.026611,550.933960 
	C185.094162,558.334595 184.161713,565.735291 182.442062,573.241455 
	C158.162292,577.447021 144.537994,591.503723 140.634247,616.114807 
	C135.904633,645.932495 138.831757,675.499817 141.647629,705.121582 
	C143.157013,720.999512 145.221893,736.826294 147.152847,752.661865 
	C147.908432,758.858337 148.983749,765.015808 149.800354,771.956909 
	C142.059097,786.198120 139.316452,801.902405 136.712631,817.596130 
	C135.661469,823.931763 135.728210,830.444641 134.908722,836.828430 
	C133.169357,850.378540 131.205048,863.900208 129.289688,877.427307 
	C127.768204,888.172729 126.433670,898.954468 124.504074,909.627502 
	C123.709808,914.020935 122.238449,918.582397 119.911766,922.348755 
	C114.844788,930.550964 109.045143,938.301636 103.518150,946.218201 
	C98.737976,953.065002 93.950363,959.906921 89.113228,966.713440 
	C82.181190,976.467407 75.178795,986.171448 68.247375,995.925842 
	C60.367344,1007.015320 52.532494,1018.136902 44.020432,1029.172974 
	C40.057629,1033.435181 35.937073,1037.564941 32.202560,1042.018555 
	C30.491360,1044.059448 29.539028,1046.736694 28.207602,1049.820801 
	C29.736534,1051.854126 30.891506,1054.408691 32.863884,1055.823975 
	C39.004795,1060.229980 45.345589,1064.386353 51.819519,1068.290405 
	C57.304462,1071.598145 63.082153,1074.420532 68.971786,1077.666016 
	C73.904770,1078.343750 78.828117,1079.105225 83.773529,1079.675293 
	C88.569740,1080.228149 90.951302,1077.202148 88.937202,1072.774658 
	C88.041405,1070.805542 86.017723,1069.349487 83.861320,1067.169678 
	C82.737755,1066.505737 81.672890,1065.408325 80.481247,1065.247070 
	C71.762657,1064.066040 67.245499,1057.568359 62.207203,1051.103394 
	C63.036865,1046.715820 63.796070,1042.312744 64.755539,1037.953735 
	C64.947807,1037.080200 65.842545,1036.318115 66.515335,1035.600220 
	C73.322777,1028.336792 80.140717,1021.082825 86.976608,1013.846008 
	C96.540009,1003.721680 106.095436,993.589539 115.701744,983.506042 
	C126.472046,972.200684 137.030823,960.676086 148.172623,949.747498 
	C158.546341,939.572266 167.463593,928.827759 172.631882,914.837280 
	C180.590103,893.294373 189.639328,872.153259 198.345093,850.890625 
	C198.839279,849.683716 200.411758,848.918396 201.827911,848.707947 
	C202.843857,850.205994 203.879913,851.690857 204.872665,853.204102 
	C214.860947,868.429626 224.915848,883.612244 234.797165,898.906982 
	C240.582733,907.862061 247.296768,916.479858 251.451401,926.167786 
	C258.605927,942.851135 264.083344,960.253235 270.274475,977.350159 
	C274.513580,989.056519 278.799622,1000.745789 283.009399,1012.462585 
	C287.328156,1024.482422 291.579712,1036.526489 295.280304,1049.274170 
	C294.811432,1057.728882 294.342560,1066.183472 294.341614,1075.164917 
	C294.933807,1075.497314 295.526001,1075.829590 296.416595,1076.665161 
M458.717438,759.137512 
	C460.532562,764.870300 462.177063,770.666992 464.283966,776.290466 
	C464.803284,777.676453 466.819580,779.332520 468.163025,779.346069 
	C469.517029,779.359802 471.513000,777.763611 472.131470,776.382019 
	C473.647827,772.994812 474.532715,769.324951 475.671661,765.768799 
	C477.774109,769.522095 478.654541,773.333557 480.147461,776.887695 
	C480.662750,778.114380 482.654968,779.283020 484.061127,779.398376 
	C485.220856,779.493469 487.288361,778.233459 487.615997,777.164062 
	C489.548157,770.857544 491.088989,764.431152 492.769440,758.015076 
	C488.917999,756.619263 487.238007,757.694885 486.765045,761.528198 
	C486.339264,764.979187 485.233368,768.346313 484.427429,771.750427 
	C482.276093,767.868774 481.383972,763.993408 479.919861,760.347778 
	C479.410889,759.080566 477.491089,757.642334 476.207123,757.634277 
	C474.957245,757.626343 473.047913,759.097595 472.560486,760.357483 
	C471.021271,764.335938 470.012939,768.519836 468.448212,773.811096 
	C467.045441,767.580444 465.926270,762.609436 464.722351,757.262024 
	C462.223724,757.527405 460.108459,757.752136 457.229645,757.574829 
	C454.120392,756.895569 452.254333,757.884949 451.337708,761.167664 
	C450.400909,764.522766 448.902222,767.721008 447.231232,772.078796 
	C445.521973,767.893860 444.034637,764.919067 443.093536,761.780518 
	C441.895874,757.786499 439.713928,756.411011 435.367889,758.101440 
	C436.557861,760.919189 437.504395,763.743958 438.890991,766.333008 
	C442.855865,773.736084 445.537231,781.112671 439.981903,788.949402 
	C439.884674,789.086548 440.152740,789.482727 440.703705,791.036621 
	C442.868011,789.695068 445.784363,788.946289 446.555450,787.232300 
	C450.638977,778.155823 454.183105,768.836731 458.717438,759.137512 
M599.666992,730.640564 
	C597.498779,736.039490 595.330505,741.438477 593.098022,746.997314 
	C601.761475,747.448730 601.772400,747.453247 604.790283,740.180908 
	C609.058228,729.896118 613.315918,719.607056 617.560364,709.312561 
	C618.793884,706.320923 619.966980,703.304382 621.306641,699.951599 
	C617.948547,699.951599 615.317627,699.951599 612.422119,699.951599 
	C609.853577,706.722412 607.283997,713.495850 604.298950,721.364624 
	C601.561035,714.600342 599.307251,708.757446 596.791870,703.029419 
	C596.231323,701.752930 594.703918,699.927429 593.701965,699.977112 
	C587.412537,700.288696 580.462402,697.609741 575.113403,704.260315 
	C573.838684,697.816284 569.685974,700.075134 566.239990,700.109131 
	C566.239990,710.781921 566.239990,721.220276 566.239990,731.834045 
	C568.940369,731.834045 571.382874,731.834045 574.192017,731.834045 
	C574.192017,728.171753 574.191772,724.689392 574.192017,721.206970 
	C574.192810,710.084900 574.581726,709.598694 585.323242,707.424927 
	C585.483337,705.362183 585.646362,703.262451 585.809326,701.162720 
	C586.142761,701.064331 586.476196,700.966003 586.809631,700.867676 
	C590.985779,710.537842 595.161926,720.208008 599.666992,730.640564 
M634.499878,660.625671 
	C634.522034,655.294739 634.406677,649.958618 634.604736,644.634216 
	C634.806702,639.203491 637.421143,636.706970 642.259460,636.871826 
	C646.838623,637.027832 648.901917,639.437561 648.962158,644.910461 
	C649.024048,650.534424 648.975891,656.159668 648.975891,661.989380 
	C651.822327,661.989380 654.258850,661.989380 656.620117,661.989380 
	C656.842529,661.505005 657.090698,661.214294 657.093506,660.921265 
	C657.146118,655.424927 657.139099,649.927917 657.207397,644.431824 
	C657.282288,638.403198 656.009094,633.059204 649.778381,630.476196 
	C643.971130,628.068787 638.657593,629.833374 633.397888,635.752625 
	C627.115540,627.896118 620.020447,627.422791 612.251953,633.841919 
	C611.930176,632.434021 611.662109,631.261230 611.445618,630.314026 
	C608.630798,630.314026 606.218262,630.314026 603.639038,630.314026 
	C603.639038,640.931519 603.639038,651.213745 603.639038,661.845581 
	C606.373474,661.845581 608.959045,661.845581 611.872681,661.845581 
	C611.872681,655.835876 611.752563,650.021729 611.909302,644.215027 
	C612.043335,639.248779 614.728821,636.771362 619.402954,636.872681 
	C623.818298,636.968384 626.030090,639.330627 626.109192,644.336060 
	C626.200623,650.123108 626.130432,655.912720 626.130432,662.435730 
	C629.183899,662.057983 631.747131,661.740845 634.499878,660.625671 
M384.451691,717.491333 
	C384.451691,722.253235 384.451691,727.015198 384.451691,731.931824 
	C390.810181,731.931824 396.480682,732.274231 402.095032,731.858643 
	C412.889801,731.059570 419.946655,723.690430 420.547668,713.168884 
	C421.215271,701.481018 415.440887,693.051636 404.552429,691.494812 
	C398.111206,690.573853 391.430756,691.326355 384.451843,691.326355 
	C384.451843,699.906799 384.451843,708.200317 384.451691,717.491333 
M552.963379,662.189575 
	C554.869080,662.189575 556.774780,662.189575 558.560181,662.189575 
	C558.560181,648.117432 558.560181,634.864685 558.560181,621.382935 
	C555.843811,621.382935 553.432800,621.382935 550.402466,621.382935 
	C550.402466,626.861084 550.402466,632.107666 550.402466,637.570374 
	C544.345581,637.570374 538.906189,637.570374 532.855835,637.570374 
	C532.855835,632.092590 532.855835,626.698059 532.855835,621.311523 
	C529.938904,621.311523 527.635132,621.311523 525.196228,621.311523 
	C525.196228,635.002075 525.196228,648.513611 525.196228,661.848022 
	C528.008423,661.848022 530.419250,661.848022 533.300354,661.848022 
	C533.300354,655.929688 533.300354,650.354492 533.300354,644.923462 
	C539.197937,644.923462 544.608948,644.923462 550.448730,644.923462 
	C550.448730,649.583374 550.316528,653.885315 550.526245,658.170532 
	C550.592285,659.519958 551.575073,660.824646 552.963379,662.189575 
M551.360229,730.973877 
	C555.330811,728.951965 558.445129,726.248352 559.261841,721.179565 
	C555.314636,720.868042 551.964539,719.673462 548.859070,723.700073 
	C547.619690,725.307007 543.186951,725.622681 540.787659,724.811523 
	C538.676147,724.097595 537.372925,720.992676 535.712769,718.943665 
	C536.097351,718.455139 536.481934,717.966675 536.866577,717.478149 
	C544.461914,717.478149 552.057251,717.478149 559.558594,717.478149 
	C560.782471,707.558838 556.310303,701.261292 547.341003,699.594849 
	C538.341919,697.922974 530.672302,702.583130 528.632202,711.150146 
	C527.114136,717.524658 527.984802,723.582214 532.906616,728.222473 
	C538.001404,733.025635 544.197388,733.325623 551.360229,730.973877 
M431.787689,729.811218 
	C440.192108,735.543945 455.283752,731.501709 456.004425,721.010925 
	C452.406738,721.034302 448.943726,719.575623 445.877838,723.683777 
	C444.680603,725.288025 440.224731,725.631042 437.834351,724.824890 
	C435.700562,724.105347 434.367615,721.011169 432.681305,718.964783 
	C433.053741,718.489014 433.426147,718.013245 433.798584,717.537476 
	C441.394012,717.537476 448.989441,717.537476 456.487732,717.537476 
	C457.821655,708.405518 453.782806,701.899353 445.971893,699.926941 
	C437.981598,697.909241 430.435181,700.807251 427.029785,707.201355 
	C423.104797,714.571106 424.788239,723.508362 431.787689,729.811218 
M570.979736,659.642822 
	C572.152527,660.260986 573.277954,661.001221 574.505798,661.477478 
	C582.532104,664.590393 591.516907,661.778625 595.505249,654.961487 
	C599.699280,647.792908 597.915649,637.784119 591.563171,632.840332 
	C584.953186,627.696167 574.038757,628.806213 568.384094,634.926758 
	C563.374634,640.348938 562.810181,653.792480 570.979736,659.642822 
M444.672699,659.960205 
	C455.644379,665.766907 467.717834,661.455261 468.975586,651.115356 
	C465.096497,650.939209 461.498047,650.243286 458.471741,654.323059 
	C457.382141,655.791992 452.992798,656.006531 450.786957,655.115723 
	C448.617828,654.239685 447.308136,651.235657 445.621307,649.165405 
	C445.986725,648.653381 446.352112,648.141296 446.717499,647.629272 
	C454.400208,647.629272 462.082916,647.629272 469.677094,647.629272 
	C470.511871,637.682007 465.963593,631.255615 457.671661,629.899841 
	C449.686493,628.594238 442.999146,631.552246 439.893158,637.763855 
	C436.188263,645.173157 437.798035,653.553101 444.672699,659.960205 
M505.964142,646.265320 
	C506.022400,635.908813 500.259674,629.696289 490.427124,629.515747 
	C480.891632,629.340637 474.181458,635.984009 474.000305,645.778931 
	C473.819519,655.551636 480.223083,662.482056 489.745117,662.819092 
	C497.752258,663.102478 504.506470,657.875916 504.771851,650.997009 
	C501.157318,651.213135 497.532806,649.962463 494.676086,654.171936 
	C493.654602,655.677185 489.233459,656.056030 487.003418,655.227722 
	C484.777771,654.401062 483.352814,651.418762 481.576813,649.381531 
	C481.913574,648.873535 482.250336,648.365479 482.587097,647.857483 
	C485.018921,647.857483 487.453583,647.932861 489.882019,647.842041 
	C495.148987,647.645020 500.412781,647.362976 505.964142,646.265320 
M663.660095,651.798462 
	C666.487671,659.417297 672.521057,663.419250 680.079102,662.689148 
	C687.829224,661.940491 692.506958,658.118042 693.880981,651.223633 
	C690.007629,650.937012 686.504883,650.156921 683.360352,654.161316 
	C682.139832,655.715576 677.635254,655.874817 675.260620,654.982544 
	C673.177612,654.199768 671.981140,651.057617 670.393127,648.957642 
	C678.067444,647.850830 684.539917,647.713684 691.002380,647.909546 
	C694.163513,648.005310 695.053406,646.765259 694.885437,643.812195 
	C694.490356,636.864258 689.608521,631.179810 682.735657,629.951050 
	C670.135864,627.698181 660.389587,636.289124 663.660095,651.798462 
M384.426300,656.234192 
	C384.426300,658.020508 384.426300,659.806824 384.426300,661.901855 
	C387.468475,661.901855 390.045349,661.901855 393.076660,661.901855 
	C393.076660,656.182190 393.076660,650.763123 393.076660,644.867676 
	C397.759033,644.867676 402.001770,644.867676 406.183197,644.867676 
	C406.183197,642.647400 406.183197,640.931030 406.183197,638.843628 
	C401.684296,638.843628 397.556152,638.843628 393.187500,638.843628 
	C393.187500,635.067688 393.187500,631.673523 393.187500,627.771179 
	C398.897308,627.771179 404.310150,627.771179 409.729370,627.771179 
	C409.729370,625.347046 409.729370,623.437073 409.729370,621.327026 
	C401.326172,621.327026 393.226166,621.327026 384.426392,621.327026 
	C384.426392,632.755798 384.426392,644.025818 384.426300,656.234192 
M512.335022,711.623962 
	C511.123749,715.141296 509.912445,718.658630 508.262665,723.449280 
	C505.951416,716.802551 504.052948,711.384888 502.183746,705.957153 
	C499.753998,698.901611 499.658173,698.841003 491.538361,700.542053 
	C495.446686,711.080139 499.331573,721.554993 503.211853,732.017517 
	C505.693604,732.017517 507.712952,732.228088 509.661743,731.947998 
	C511.107880,731.740112 513.343262,731.242065 513.721863,730.280518 
	C517.633789,720.346741 521.239441,710.292297 524.985718,700.120728 
	C516.414734,699.430298 516.412415,699.429565 514.035706,706.648376 
	C513.569275,708.065002 513.127930,709.489990 512.335022,711.623962 
M486.032959,797.882996 
	C484.747711,797.882996 483.462463,797.882996 481.814392,797.882996 
	C481.814392,801.411194 481.814392,804.480896 481.814392,807.764893 
	C475.667725,803.851807 470.612762,803.995361 467.261200,807.935791 
	C463.825989,811.974792 463.862152,820.230164 467.332520,824.195862 
	C470.769775,828.123718 475.706726,828.195068 480.410858,825.145752 
	C483.058350,826.096680 484.915161,826.763611 486.772247,827.430603 
	C486.772247,817.152344 486.772247,807.656372 486.032959,797.882996 
M423.892822,645.998535 
	C424.010742,638.664734 429.739990,638.687317 434.808105,637.886108 
	C434.808105,635.131287 434.808105,632.528992 434.808105,628.777039 
	C430.903595,630.574402 427.612976,632.089172 424.272247,633.627014 
	C423.987793,632.604004 423.628052,631.310242 423.300354,630.131714 
	C420.630890,630.131714 418.326080,630.131714 415.724792,630.131714 
	C415.724792,640.688660 415.724792,651.084473 415.724792,661.769775 
	C418.378174,661.769775 421.036957,661.769775 423.884369,661.769775 
	C423.884369,656.519653 423.884369,651.712280 423.892822,645.998535 
M383.707184,772.917297 
	C382.982941,774.896729 382.258698,776.876099 381.548340,778.817566 
	C386.911163,781.240173 387.987915,777.592712 389.260040,774.025085 
	C392.118073,774.025085 394.961761,773.820129 397.750153,774.123413 
	C398.905731,774.249207 400.655334,775.270508 400.909821,776.214722 
	C401.967468,780.139038 404.534912,779.878174 407.957581,779.102478 
	C404.836884,770.601685 401.881561,762.175171 398.536987,753.906189 
	C398.107697,752.844727 395.639587,752.092407 394.144989,752.138489 
	C392.921814,752.176208 391.115509,753.356628 390.647919,754.480042 
	C388.223083,760.305603 386.145020,766.275452 383.707184,772.917297 
M507.692322,757.152344 
	C505.610565,758.006836 503.528778,758.861328 500.945099,759.921875 
	C500.945099,756.595459 500.945099,753.529663 500.945099,750.089417 
	C498.895111,750.215332 497.348450,750.310364 495.748566,750.408630 
	C495.748566,760.268677 495.748566,769.675232 495.748566,779.214111 
	C497.648468,779.214111 499.205688,779.214111 501.176453,779.214111 
	C501.176453,774.888550 500.997223,770.897400 501.234772,766.931213 
	C501.415680,763.910156 503.177704,762.007446 506.433929,762.062500 
	C509.799133,762.119446 511.103546,764.123657 511.102356,767.256836 
	C511.100891,771.197754 511.101990,775.138733 511.101990,779.159424 
	C513.443848,779.159424 515.141907,779.159424 517.028809,779.159424 
	C517.028809,774.764343 517.141052,770.768555 517.002686,766.781494 
	C516.789062,760.627014 514.686890,758.336548 507.692322,757.152344 
M518.829529,824.739746 
	C520.630737,825.693054 522.431885,826.646301 524.738281,827.866943 
	C524.738281,819.269592 524.738281,812.208740 524.738281,804.330383 
	C522.179260,805.248535 520.134766,805.982056 517.705078,806.853760 
	C513.066528,803.902771 508.087250,804.118103 504.862366,807.806885 
	C501.295288,811.887085 501.205750,819.795166 504.678864,824.009338 
	C507.874695,827.887024 512.819153,828.227966 518.829529,824.739746 
M462.999420,715.498108 
	C462.999420,720.924255 462.999420,726.350342 462.999420,731.684448 
	C466.047699,731.684448 468.454712,731.684448 470.827057,731.684448 
	C470.827057,717.331604 470.827057,703.296509 470.827057,689.313965 
	C468.075653,689.313965 465.680359,689.313965 462.999420,689.313965 
	C462.999420,697.915649 462.999420,706.207092 462.999420,715.498108 
M574.438782,769.587769 
	C575.603516,769.586182 576.797241,769.747009 577.926392,769.545776 
	C579.733459,769.223694 583.000916,768.712280 583.018433,768.191772 
	C583.092346,766.007202 582.656616,763.511780 581.546631,761.640930 
	C579.091492,757.503052 573.134155,756.116943 568.185669,758.043640 
	C563.279968,759.953674 560.870300,765.064697 561.930298,771.311279 
	C562.738098,776.070862 566.540894,779.426147 571.621033,779.861450 
	C576.995056,780.321960 580.948486,777.604919 583.149048,770.778748 
	C580.092224,772.103210 577.756470,772.750732 575.836487,774.024841 
	C572.130676,776.484070 568.818604,775.104370 567.574585,769.586914 
	C569.654541,769.586914 571.569946,769.586914 574.438782,769.587769 
M526.907776,758.118103 
	C521.288330,761.787415 519.380615,766.557312 521.147522,772.520386 
	C522.473022,776.993774 526.792358,779.975769 531.809021,779.880798 
	C536.957886,779.783386 540.256042,777.176147 541.966125,770.751648 
	C539.000366,772.094177 536.686279,772.821228 534.729553,774.096497 
	C531.033020,776.505554 527.687683,775.003906 526.648193,769.586121 
	C530.854126,769.586121 534.945007,769.454102 539.022705,769.628967 
	C542.134216,769.762451 542.637329,768.336243 542.217529,765.666260 
	C541.220215,759.323547 535.373291,756.154297 526.907776,758.118103 
M411.721680,827.025269 
	C412.943176,826.882019 414.164673,826.738770 415.555786,826.575623 
	C415.555786,822.512451 415.689728,818.862671 415.530029,815.225830 
	C415.094177,805.300293 409.146118,802.128479 401.294952,806.695740 
	C398.680145,805.890808 396.633209,805.260681 394.179382,804.505249 
	C394.179382,812.456482 394.179382,819.537842 394.179382,826.788452 
	C395.966095,826.788452 397.534332,826.788452 399.628693,826.788452 
	C399.628693,822.928528 399.541351,819.299622 399.653595,815.676880 
	C399.763153,812.140747 401.001343,809.391846 405.219849,809.648438 
	C409.265564,809.894470 409.655670,812.806152 409.822052,816.029480 
	C410.010681,819.683838 410.500763,823.322632 411.721680,827.025269 
M422.475189,762.051575 
	C426.169922,762.368408 426.988403,764.837402 426.964417,767.987488 
	C426.935791,771.743469 426.957672,775.499817 426.957672,779.586914 
	C429.238464,779.476929 430.823944,779.400452 432.886047,779.300964 
	C432.886047,775.349548 432.956665,771.733398 432.866943,768.121338 
	C432.770111,764.222473 432.339417,760.360657 428.416931,758.206299 
	C424.314392,755.953125 420.736816,757.489990 418.615234,759.162598 
	C415.743408,758.322998 413.790985,757.752136 411.475952,757.075317 
	C411.475952,765.120728 411.475952,772.146301 411.475952,779.568848 
	C413.431519,779.456909 414.999359,779.367126 416.925232,779.256836 
	C416.925232,775.186951 416.885315,771.554871 416.937317,767.924133 
	C416.982422,764.776672 418.076721,762.393372 422.475189,762.051575 
M441.509003,804.975220 
	C440.840271,805.514282 439.600708,806.041992 439.589722,806.594177 
	C439.455963,813.319702 439.502869,820.048828 439.502869,827.107422 
	C441.761078,826.954712 443.308289,826.850037 445.170746,826.724121 
	C445.170746,822.328674 444.985657,818.345459 445.230743,814.388855 
	C445.418518,811.358032 447.235504,809.525269 450.474609,809.617249 
	C453.804138,809.711792 455.142700,811.645386 455.120972,814.806885 
	C455.093903,818.748108 455.114441,822.689697 455.114441,826.688721 
	C457.387848,826.688721 459.086151,826.688721 461.034271,826.688721 
	C461.034271,822.879639 461.021881,819.409119 461.037476,815.938782 
	C461.055939,811.824219 460.863312,807.188110 456.437500,805.858826 
	C453.099182,804.856140 449.117004,805.997253 444.759613,806.217590 
	C444.654449,806.163086 443.500061,805.565308 441.509003,804.975220 
M486.999603,728.299438 
	C486.999603,718.905334 486.999603,709.511230 486.999603,700.142456 
	C483.994354,700.142456 481.596741,700.142456 479.075226,700.142456 
	C479.075226,710.816040 479.075226,721.177979 479.075226,732.216064 
	C481.818695,730.576782 485.902557,734.948669 486.999603,728.299438 
M552.967041,760.299805 
	C551.626709,757.727844 549.855835,756.329468 546.767090,758.176208 
	C546.767090,765.101074 546.767090,772.113464 546.767090,779.210449 
	C548.679626,779.210449 550.232849,779.210449 551.560608,779.210449 
	C553.657043,773.114563 547.805237,763.667786 559.556885,762.867310 
	C559.556885,760.931763 559.556885,759.197754 559.556885,756.502075 
	C557.102478,757.857178 555.301147,758.851746 552.967041,760.299805 
M434.167969,806.566650 
	C434.167969,804.143799 434.167969,801.720947 434.167969,798.948242 
	C431.995575,799.084229 430.468536,799.179871 429.060120,799.268066 
	C429.060120,808.724915 429.060120,817.620850 429.060120,826.672974 
	C430.816254,826.672974 432.339600,826.672974 434.167877,826.672974 
	C434.167877,820.087463 434.167877,813.818054 434.167969,806.566650 
M387.360046,827.001282 
	C387.853271,826.453003 388.767273,825.911072 388.775635,825.355408 
	C388.875061,818.732788 388.839722,812.108032 388.839722,805.358459 
	C386.744293,805.358459 385.066895,805.358459 383.115967,805.358459 
	C383.115967,811.890869 382.966064,818.040955 383.265594,824.169067 
	C383.314697,825.173950 385.341644,826.082214 387.360046,827.001282 
M498.042053,822.328308 
	C498.042053,816.585083 498.042053,810.841858 498.042053,805.145203 
	C495.899109,805.145203 494.428101,805.145203 492.685181,805.145203 
	C492.685181,812.393616 492.685181,819.464417 492.685181,826.771790 
	C495.644684,827.100769 498.698547,828.127075 498.042053,822.328308 
M487.908600,689.709229 
	C487.118500,688.697876 486.361328,686.866211 485.531891,686.832947 
	C483.278534,686.742432 480.654755,686.885559 478.880493,688.027649 
	C478.109283,688.524170 478.441833,692.936279 479.356842,693.391541 
	C481.244080,694.330383 483.907562,694.096741 486.148254,693.723938 
	C486.919708,693.595581 487.383453,691.618164 487.908600,689.709229 
M495.398987,801.853333 
	C496.523193,800.706421 497.647400,799.559509 498.771606,798.412537 
	C497.737976,797.555847 496.758209,796.108154 495.655670,796.007690 
	C494.537476,795.905762 493.298035,797.134705 492.111694,797.780762 
	C492.954834,799.128723 493.797943,800.476685 495.398987,801.853333 
M389.403625,799.348694 
	C388.215179,798.170227 387.167389,796.735718 385.757141,795.960876 
	C385.302490,795.711121 383.351532,797.030762 383.073486,797.935974 
	C382.791443,798.854309 383.753845,801.118652 384.130707,801.109558 
	C385.820892,801.068848 387.496582,800.428162 389.403625,799.348694 
z"/>
<path fill="#32618F" opacity="1.000000" stroke="none" 
	d="
M44.678001,1029.244507 
	C52.532494,1018.136902 60.367344,1007.015320 68.247375,995.925842 
	C75.178795,986.171448 82.181190,976.467407 89.113228,966.713440 
	C93.950363,959.906921 98.737976,953.065002 103.518150,946.218201 
	C109.045143,938.301636 114.844788,930.550964 119.911766,922.348755 
	C122.238449,918.582397 123.709808,914.020935 124.504074,909.627502 
	C126.433670,898.954468 127.768204,888.172729 129.289688,877.427307 
	C131.205048,863.900208 133.169357,850.378540 134.908722,836.828430 
	C135.728210,830.444641 135.661469,823.931763 136.712631,817.596130 
	C139.316452,801.902405 142.059097,786.198120 150.057983,771.361633 
	C151.913208,770.868591 153.541016,770.807678 155.103973,771.097046 
	C186.370605,776.886475 217.790939,778.053223 249.591614,774.672424 
	C250.601227,777.501587 251.500092,779.962830 252.184448,782.482300 
	C257.807434,803.183472 263.514771,823.862915 268.951538,844.613159 
	C274.638702,866.319092 280.371155,888.021912 285.496338,909.863953 
	C290.320496,930.423035 294.454254,951.146179 298.748596,971.826904 
	C301.699188,986.036316 304.439392,1000.289856 307.209473,1014.536133 
	C309.352600,1025.558105 311.396332,1036.599243 313.068909,1047.779175 
	C307.128113,1050.050415 301.598236,1052.057983 295.860657,1048.559937 
	C291.579712,1036.526489 287.328156,1024.482422 283.009399,1012.462585 
	C278.799622,1000.745789 274.513580,989.056519 270.274475,977.350159 
	C264.083344,960.253235 258.605927,942.851135 251.451401,926.167786 
	C247.296768,916.479858 240.582733,907.862061 234.797165,898.906982 
	C224.915848,883.612244 214.860947,868.429626 204.872665,853.204102 
	C203.879913,851.690857 202.843857,850.205994 201.581253,848.098877 
	C198.330612,844.513062 196.096771,844.147827 194.750076,849.022034 
	C193.963638,851.868469 192.550156,854.539673 191.446518,857.300781 
	C185.136612,873.086975 179.012115,888.950500 172.460709,904.635742 
	C168.839172,913.306335 165.557098,922.417603 160.230255,930.001465 
	C153.538895,939.528137 145.043701,947.817627 137.084000,956.416077 
	C127.526550,966.740417 117.753952,976.867004 108.001160,987.008667 
	C93.396965,1002.195129 78.703339,1017.295654 64.128098,1032.509644 
	C62.705669,1033.994507 61.844826,1036.017456 60.313957,1037.696289 
	C57.522068,1037.087769 54.966434,1036.954590 52.797615,1035.969727 
	C49.562237,1034.500366 45.306923,1033.963013 44.678001,1029.244507 
z"/>
<path fill="#EA3E3E" opacity="1.000000" stroke="none" 
	d="
M249.381470,774.331482 
	C217.790939,778.053223 186.370605,776.886475 155.103973,771.097046 
	C153.541016,770.807678 151.913208,770.868591 150.114517,770.978699 
	C148.983749,765.015808 147.908432,758.858337 147.152847,752.661865 
	C145.221893,736.826294 143.157013,720.999512 141.647629,705.121582 
	C138.831757,675.499817 135.904633,645.932495 140.634247,616.114807 
	C144.537994,591.503723 158.162292,577.447021 182.776947,573.600830 
	C182.289429,577.752258 183.025162,580.882080 186.764236,582.812317 
	C193.548309,586.314819 200.481461,586.995422 207.266205,583.171570 
	C211.604095,580.726807 209.925095,576.542236 209.717712,572.736023 
	C211.221756,572.453369 212.352615,572.258728 213.483475,572.064087 
	C222.157379,573.485413 230.301514,575.959900 236.026154,584.080933 
	C237.667175,588.858643 239.896133,592.807556 240.667007,597.023071 
	C241.790863,603.168640 241.866013,609.505981 241.897919,615.788757 
	C240.262527,615.840149 239.117569,615.878906 237.972397,615.886353 
	C225.988632,615.964050 225.988617,615.962646 227.378372,628.726501 
	C227.313171,631.681580 227.345917,634.226196 227.301376,637.247925 
	C227.323578,655.926514 227.423065,674.128113 227.415558,692.737793 
	C227.326599,695.689209 227.344620,698.232544 227.287567,701.259583 
	C227.120850,703.705322 227.029205,705.667419 226.532013,707.525024 
	C213.607529,703.543091 201.055756,699.764526 188.620148,695.635986 
	C187.368149,695.220276 186.068726,692.687317 186.068619,691.136841 
	C186.068039,682.648804 186.466400,674.160767 186.938812,665.255981 
	C188.687286,652.450623 187.631729,640.105103 187.837936,627.738647 
	C186.920212,627.727112 186.002502,627.715576 185.084778,627.704041 
	C185.084778,640.085754 185.084778,652.467529 184.620178,664.951660 
	C173.065582,664.972778 161.975586,664.891418 150.871933,664.367065 
	C150.153442,652.458008 149.448624,640.991943 148.743790,629.525879 
	C148.040649,629.534485 147.337509,629.543091 146.634369,629.551758 
	C146.492722,631.090332 146.178131,632.635803 146.238525,634.166382 
	C146.545563,641.949890 146.815964,649.739502 147.391876,657.505249 
	C147.595718,660.254028 148.627365,662.941528 149.380249,666.019287 
	C151.308517,681.038025 153.166870,695.690918 154.953308,710.352478 
	C155.745804,716.856445 159.371429,721.153625 165.452637,722.936462 
	C172.276535,724.937012 179.226898,727.346436 186.227112,727.747498 
	C206.929337,728.933838 227.683304,729.217529 248.393463,730.323242 
	C248.707092,745.305298 249.044281,759.818359 249.381470,774.331482 
z"/>
<path fill="#E7A979" opacity="1.000000" stroke="none" 
	d="
M349.972961,616.292725 
	C350.686401,616.600403 351.399841,616.908020 352.283417,617.921997 
	C352.361603,620.613831 352.190704,622.599243 352.189514,624.584839 
	C352.171997,653.820374 352.177063,683.055969 352.176727,712.291504 
	C352.176697,714.072449 352.176727,715.853394 352.176727,718.162537 
	C339.678833,718.162537 327.743134,718.162537 315.280579,718.129150 
	C302.776703,718.095703 290.799652,718.095703 278.822632,718.095703 
	C278.769806,717.551392 278.717010,717.007080 278.664215,716.462769 
	C279.990540,715.993225 281.413055,715.692261 282.615936,715.006287 
	C283.799591,714.331360 284.760529,713.265747 285.819183,712.371582 
	C284.835419,711.441528 283.851654,710.511414 282.884766,709.139282 
	C282.922852,680.119080 283.026794,651.540527 282.879944,622.963196 
	C282.856750,618.453674 284.134796,616.887329 288.791840,616.945251 
	C307.232086,617.174500 325.676910,617.060669 344.119843,617.005310 
	C346.071594,616.999451 348.021942,616.541077 349.972961,616.292725 
M332.470673,673.443970 
	C331.340881,675.016113 330.211121,676.588196 329.081329,678.160339 
	C328.926727,677.661621 328.772095,677.162903 328.617493,676.664185 
	C326.373199,676.896667 323.851410,676.556396 321.942596,677.481262 
	C318.006622,679.388306 317.612946,683.220215 317.782104,687.212097 
	C325.038696,684.538391 332.347382,682.280029 333.052032,672.917969 
	C333.052032,672.917969 333.002930,673.037964 332.470673,673.443970 
M289.694336,633.434326 
	C293.797424,633.601257 297.911469,633.987305 301.996063,633.783447 
	C303.036560,633.731506 304.522400,631.949890 304.847351,630.711975 
	C305.334381,628.856445 305.013458,626.778259 304.969360,624.796265 
	C304.890747,621.263123 302.292389,620.598450 299.783051,621.189697 
	C295.559784,622.184937 289.697754,617.838135 287.296967,624.340271 
	C286.505310,626.484253 287.764465,629.385498 288.282806,632.376648 
	C288.474792,632.648071 288.730347,632.830322 289.694336,633.434326 
M299.851715,674.770569 
	C301.510254,682.885376 307.709869,685.392334 314.763031,686.845154 
	C314.650726,678.804993 309.672119,674.873047 303.062622,677.238037 
	C301.849609,676.189453 300.751434,675.240112 299.851715,674.770569 
M336.523438,623.036804 
	C332.061249,622.984131 327.595001,622.814270 323.139954,622.968445 
	C322.139221,623.003113 320.909271,623.989929 320.305420,624.888367 
	C319.978088,625.375366 320.477875,626.902954 321.074066,627.435486 
	C322.879944,629.048462 335.432251,625.826050 336.523438,623.036804 
z"/>
<path fill="#D58761" opacity="1.000000" stroke="none" 
	d="
M349.514465,616.206543 
	C348.021942,616.541077 346.071594,616.999451 344.119843,617.005310 
	C325.676910,617.060669 307.232086,617.174500 288.791840,616.945251 
	C284.134796,616.887329 282.856750,618.453674 282.879944,622.963196 
	C283.026794,651.540527 282.922852,680.119080 282.458496,709.219543 
	C277.704987,710.653015 272.653809,710.453064 269.249237,712.722900 
	C263.416962,716.611267 257.696564,718.832703 250.696838,718.202393 
	C246.576797,717.831299 242.396164,718.132629 238.242783,718.132324 
	C227.462067,718.131470 227.462067,718.131653 226.937561,707.629456 
	C227.029205,705.667419 227.120850,703.705322 227.722946,701.324829 
	C232.704346,700.948303 237.179123,700.891479 241.644928,701.065491 
	C244.815186,701.188965 246.051147,699.962830 246.096252,696.725769 
	C246.144485,693.265137 244.854858,691.936951 241.428513,692.099487 
	C236.799973,692.319153 232.158478,692.265869 227.522537,692.329651 
	C227.423065,674.128113 227.323578,655.926514 227.735474,637.312744 
	C232.724854,636.944031 237.206635,636.890320 241.679626,637.063904 
	C244.886520,637.188416 246.110916,635.886658 246.084686,632.671692 
	C246.060104,629.656189 245.308762,627.936829 241.899826,628.077942 
	C237.096939,628.276855 232.284607,628.247742 227.476318,628.316101 
	C225.988617,615.962646 225.988632,615.964050 237.972397,615.886353 
	C239.117569,615.878906 240.262527,615.840149 242.134766,615.913391 
	C243.954865,616.068787 245.047806,616.126709 246.140747,616.184631 
	C280.445801,616.163269 314.750885,616.141846 349.514465,616.206543 
M239.892975,668.043396 
	C239.892975,668.043396 239.908966,667.795959 239.908966,667.795959 
	C239.908966,667.795959 240.037979,667.994385 240.138153,667.998352 
	C240.138153,667.998352 240.013062,667.949768 239.892975,668.043396 
M267.022919,672.266602 
	C267.170288,671.624512 267.547699,670.466064 267.431976,670.414551 
	C262.357056,668.153259 256.070953,672.324097 255.925079,678.888306 
	C259.792999,676.720215 263.275909,674.767883 267.022919,672.266602 
M252.915649,678.174377 
	C252.962540,671.495850 248.698563,668.936951 240.873795,672.656982 
	C244.682404,674.504333 248.491013,676.351624 252.915649,678.174377 
z"/>
<path fill="#28190E" opacity="1.000000" stroke="none" 
	d="
M315.807434,718.162537 
	C327.743134,718.162537 339.678833,718.162537 352.176727,718.162537 
	C352.176727,715.853394 352.176697,714.072449 352.176727,712.291504 
	C352.177063,683.055969 352.171997,653.820374 352.189514,624.584839 
	C352.190704,622.599243 352.361603,620.613831 352.542969,618.229614 
	C355.889191,617.507812 355.966125,619.625732 355.953674,621.993530 
	C355.907166,630.826355 355.933655,639.659546 355.933594,648.492615 
	C355.933472,670.491943 355.933777,692.491211 355.933868,714.490540 
	C355.933868,716.132568 355.933838,717.774536 355.933838,719.963501 
	C354.004364,720.091309 352.418091,720.279114 350.830933,720.287537 
	C342.998169,720.329041 335.165100,720.310669 327.332245,720.339233 
	C323.604004,720.352844 319.786438,719.549683 317.130707,723.699768 
	C316.396393,724.847351 313.510254,724.756409 311.581970,724.979919 
	C293.776276,727.043579 275.984131,729.264404 258.140869,730.936096 
	C253.283218,731.391235 252.055405,733.023132 252.286118,737.646545 
	C252.834091,748.627625 252.346390,759.680298 253.306046,770.613831 
	C253.959518,778.059204 256.136871,785.407227 258.010254,792.701843 
	C262.253967,809.226074 266.786682,825.675903 271.100342,842.182495 
	C277.662628,867.293457 284.364777,892.371460 290.562164,917.572876 
	C293.974152,931.447632 296.495819,945.542114 299.382629,959.544983 
	C302.301239,973.702087 305.253693,987.852966 308.046112,1002.035156 
	C310.748352,1015.759460 313.253052,1029.522583 315.885315,1043.260742 
	C316.130585,1044.540894 316.669464,1045.764648 316.824524,1047.437134 
	C315.546082,1047.783691 314.515137,1047.707886 313.484222,1047.631958 
	C311.396332,1036.599243 309.352600,1025.558105 307.209473,1014.536133 
	C304.439392,1000.289856 301.699188,986.036316 298.748596,971.826904 
	C294.454254,951.146179 290.320496,930.423035 285.496338,909.863953 
	C280.371155,888.021912 274.638702,866.319092 268.951538,844.613159 
	C263.514771,823.862915 257.807434,803.183472 252.184448,782.482300 
	C251.500092,779.962830 250.601227,777.501587 249.591614,774.672424 
	C249.044281,759.818359 248.707092,745.305298 248.673615,730.138367 
	C251.240524,729.101624 253.490097,728.570923 255.769211,728.360596 
	C266.990479,727.325134 278.236420,726.532166 289.439758,725.336182 
	C296.321716,724.601562 303.115143,722.955750 310.003326,722.396606 
	C313.253845,722.132690 314.920441,721.021667 315.807434,718.162537 
z"/>
<path fill="#FDBDA9" opacity="1.000000" stroke="none" 
	d="
M184.838837,547.982544 
	C184.838837,547.982544 184.688416,547.828369 184.664230,547.301392 
	C184.156616,542.351196 183.673172,537.927979 183.583832,533.598633 
	C184.931152,532.824280 186.852524,531.643677 186.688660,531.135864 
	C184.936096,525.704407 187.793777,522.310303 191.881226,519.113892 
	C203.867432,518.411438 215.463989,517.774963 227.091141,517.594055 
	C227.310028,525.532349 227.566727,533.014099 227.667343,540.497925 
	C227.767502,547.946716 226.413528,555.040466 221.812561,561.166748 
	C219.131058,564.737183 215.921982,566.846008 211.100021,565.409058 
	C209.756317,565.008545 208.067337,565.766602 206.306427,565.653931 
	C204.663757,564.515442 203.116028,563.886230 201.862579,562.887573 
	C196.570923,558.671631 191.366913,554.345581 186.130859,550.059753 
	C186.130859,550.059753 186.042252,549.913391 185.995834,549.557373 
	C185.579224,548.795105 185.209030,548.388794 184.838837,547.982544 
z"/>
<path fill="#150F0B" opacity="1.000000" stroke="none" 
	d="
M60.723274,1037.790527 
	C61.844826,1036.017456 62.705669,1033.994507 64.128098,1032.509644 
	C78.703339,1017.295654 93.396965,1002.195129 108.001160,987.008667 
	C117.753952,976.867004 127.526550,966.740417 137.084000,956.416077 
	C145.043701,947.817627 153.538895,939.528137 160.230255,930.001465 
	C165.557098,922.417603 168.839172,913.306335 172.460709,904.635742 
	C179.012115,888.950500 185.136612,873.086975 191.446518,857.300781 
	C192.550156,854.539673 193.963638,851.868469 194.750076,849.022034 
	C196.096771,844.147827 198.330612,844.513062 201.408478,847.718628 
	C200.411758,848.918396 198.839279,849.683716 198.345093,850.890625 
	C189.639328,872.153259 180.590103,893.294373 172.631882,914.837280 
	C167.463593,928.827759 158.546341,939.572266 148.172623,949.747498 
	C137.030823,960.676086 126.472046,972.200684 115.701744,983.506042 
	C106.095436,993.589539 96.540009,1003.721680 86.976608,1013.846008 
	C80.140717,1021.082825 73.322777,1028.336792 66.515335,1035.600220 
	C65.842545,1036.318115 64.947807,1037.080200 64.755539,1037.953735 
	C63.796070,1042.312744 63.036865,1046.715820 62.183140,1051.273682 
	C58.039108,1050.642700 59.753479,1047.697876 59.950077,1045.348511 
	C60.161224,1042.825195 60.461742,1040.309570 60.723274,1037.790527 
z"/>
<path fill="#FEFAF6" opacity="1.000000" stroke="none" 
	d="
M599.502502,730.259399 
	C595.161926,720.208008 590.985779,710.537842 586.809631,700.867676 
	C586.476196,700.966003 586.142761,701.064331 585.809326,701.162720 
	C585.646362,703.262451 585.483337,705.362183 585.323242,707.424927 
	C574.581726,709.598694 574.192810,710.084900 574.192017,721.206970 
	C574.191772,724.689392 574.192017,728.171753 574.192017,731.834045 
	C571.382874,731.834045 568.940369,731.834045 566.239990,731.834045 
	C566.239990,721.220276 566.239990,710.781921 566.239990,700.109131 
	C569.685974,700.075134 573.838684,697.816284 575.113403,704.260315 
	C580.462402,697.609741 587.412537,700.288696 593.701965,699.977112 
	C594.703918,699.927429 596.231323,701.752930 596.791870,703.029419 
	C599.307251,708.757446 601.561035,714.600342 604.298950,721.364624 
	C607.283997,713.495850 609.853577,706.722412 612.422119,699.951599 
	C615.317627,699.951599 617.948547,699.951599 621.306641,699.951599 
	C619.966980,703.304382 618.793884,706.320923 617.560364,709.312561 
	C613.315918,719.607056 609.058228,729.896118 604.790283,740.180908 
	C601.772400,747.453247 601.761475,747.448730 593.098022,746.997314 
	C595.330505,741.438477 597.498779,736.039490 599.502502,730.259399 
z"/>
<path fill="#FEF9F3" opacity="1.000000" stroke="none" 
	d="
M634.405151,661.024719 
	C631.747131,661.740845 629.183899,662.057983 626.130432,662.435730 
	C626.130432,655.912720 626.200623,650.123108 626.109192,644.336060 
	C626.030090,639.330627 623.818298,636.968384 619.402954,636.872681 
	C614.728821,636.771362 612.043335,639.248779 611.909302,644.215027 
	C611.752563,650.021729 611.872681,655.835876 611.872681,661.845581 
	C608.959045,661.845581 606.373474,661.845581 603.639038,661.845581 
	C603.639038,651.213745 603.639038,640.931519 603.639038,630.314026 
	C606.218262,630.314026 608.630798,630.314026 611.445618,630.314026 
	C611.662109,631.261230 611.930176,632.434021 612.251953,633.841919 
	C620.020447,627.422791 627.115540,627.896118 633.397888,635.752625 
	C638.657593,629.833374 643.971130,628.068787 649.778381,630.476196 
	C656.009094,633.059204 657.282288,638.403198 657.207397,644.431824 
	C657.139099,649.927917 657.146118,655.424927 657.093506,660.921265 
	C657.090698,661.214294 656.842529,661.505005 656.620117,661.989380 
	C654.258850,661.989380 651.822327,661.989380 648.975891,661.989380 
	C648.975891,656.159668 649.024048,650.534424 648.962158,644.910461 
	C648.901917,639.437561 646.838623,637.027832 642.259460,636.871826 
	C637.421143,636.706970 634.806702,639.203491 634.604736,644.634216 
	C634.406677,649.958618 634.522034,655.294739 634.405151,661.024719 
z"/>
<path fill="#DB4E4B" opacity="1.000000" stroke="none" 
	d="
M313.068909,1047.779175 
	C314.515137,1047.707886 315.546082,1047.783691 316.880096,1047.792603 
	C318.808716,1049.707642 322.021179,1050.432129 321.229370,1054.370605 
	C321.005798,1055.482544 324.078094,1057.903687 326.052124,1058.700928 
	C335.570190,1062.545166 345.229462,1066.039795 355.144836,1069.768188 
	C355.451019,1069.877930 355.361328,1069.795532 355.361328,1069.795532 
	C355.593323,1070.267822 355.825348,1070.740234 356.327759,1072.012817 
	C356.366333,1073.192383 356.134460,1073.571655 355.443787,1073.978027 
	C336.796661,1074.004639 318.608307,1073.982910 300.420135,1074.031860 
	C298.237457,1074.037720 296.055817,1074.426758 293.873657,1074.638184 
	C294.342560,1066.183472 294.811432,1057.728882 295.570496,1048.916992 
	C301.598236,1052.057983 307.128113,1050.050415 313.068909,1047.779175 
M305.092407,1054.825562 
	C302.060699,1058.125122 302.142242,1061.538574 305.445068,1061.960205 
	C307.034485,1062.162964 309.985718,1060.792358 310.377350,1059.531006 
	C311.437592,1056.115845 309.499573,1054.245850 305.092407,1054.825562 
z"/>
<path fill="#DB4E4B" opacity="1.000000" stroke="none" 
	d="
M60.313942,1037.696289 
	C60.461742,1040.309570 60.161224,1042.825195 59.950077,1045.348511 
	C59.753479,1047.697876 58.039108,1050.642700 62.318966,1051.395264 
	C67.245499,1057.568359 71.762657,1064.066040 80.481247,1065.247070 
	C81.672890,1065.408325 82.737755,1066.505737 84.204941,1067.729248 
	C84.847092,1070.564819 85.145630,1072.840576 85.036446,1075.137939 
	C75.131256,1074.015381 65.532951,1074.210693 57.098919,1067.902222 
	C47.928909,1061.043213 37.897991,1055.335205 28.242506,1049.125244 
	C29.539028,1046.736694 30.491360,1044.059448 32.202560,1042.018555 
	C35.937073,1037.564941 40.057629,1033.435181 44.349224,1029.208740 
	C45.306923,1033.963013 49.562237,1034.500366 52.797615,1035.969727 
	C54.966434,1036.954590 57.522068,1037.087769 60.313942,1037.696289 
M46.815937,1047.783325 
	C50.066635,1047.902588 52.291798,1046.222778 51.813995,1043.125122 
	C51.542408,1041.364258 49.444229,1039.036743 47.757973,1038.617798 
	C46.468616,1038.297607 43.177784,1040.580200 43.185165,1041.688965 
	C43.198406,1043.677490 45.022324,1045.653931 46.815937,1047.783325 
z"/>
<path fill="#EA3E3E" opacity="1.000000" stroke="none" 
	d="
M178.215363,522.032471 
	C177.269028,519.075317 175.467575,516.104492 175.514740,513.163269 
	C175.827957,493.625946 190.102966,484.585632 209.111679,487.047852 
	C217.722183,488.163208 223.936890,492.927002 229.214874,499.390381 
	C215.921494,500.470276 204.189758,505.438538 193.032089,511.868042 
	C188.353241,514.564209 184.090088,517.981873 179.482758,521.213562 
	C178.956833,521.581238 178.586090,521.806824 178.215363,522.032471 
z"/>
<path fill="#FEF9F3" opacity="1.000000" stroke="none" 
	d="
M384.451782,716.992615 
	C384.451843,708.200317 384.451843,699.906799 384.451843,691.326355 
	C391.430756,691.326355 398.111206,690.573853 404.552429,691.494812 
	C415.440887,693.051636 421.215271,701.481018 420.547668,713.168884 
	C419.946655,723.690430 412.889801,731.059570 402.095032,731.858643 
	C396.480682,732.274231 390.810181,731.931824 384.451691,731.931824 
	C384.451691,727.015198 384.451691,722.253235 384.451782,716.992615 
M399.999725,698.084167 
	C397.736725,698.084167 395.473724,698.084167 393.318787,698.084167 
	C393.318787,707.302490 393.318787,715.982910 393.318787,724.621033 
	C405.039276,725.213989 410.913055,721.912292 411.995728,714.402771 
	C413.305725,705.316528 409.875763,700.318176 399.999725,698.084167 
z"/>
<path fill="#FEF9F3" opacity="1.000000" stroke="none" 
	d="
M552.550781,662.169678 
	C551.575073,660.824646 550.592285,659.519958 550.526245,658.170532 
	C550.316528,653.885315 550.448730,649.583374 550.448730,644.923462 
	C544.608948,644.923462 539.197937,644.923462 533.300354,644.923462 
	C533.300354,650.354492 533.300354,655.929688 533.300354,661.848022 
	C530.419250,661.848022 528.008423,661.848022 525.196228,661.848022 
	C525.196228,648.513611 525.196228,635.002075 525.196228,621.311523 
	C527.635132,621.311523 529.938904,621.311523 532.855835,621.311523 
	C532.855835,626.698059 532.855835,632.092590 532.855835,637.570374 
	C538.906189,637.570374 544.345581,637.570374 550.402466,637.570374 
	C550.402466,632.107666 550.402466,626.861084 550.402466,621.382935 
	C553.432800,621.382935 555.843811,621.382935 558.560181,621.382935 
	C558.560181,634.864685 558.560181,648.117432 558.560181,662.189575 
	C556.774780,662.189575 554.869080,662.189575 552.550781,662.169678 
z"/>
<path fill="#C10504" opacity="1.000000" stroke="none" 
	d="
M179.637939,521.071533 
	C184.090088,517.981873 188.353241,514.564209 193.032089,511.868042 
	C204.189758,505.438538 215.921494,500.470276 229.337860,499.650940 
	C233.687576,500.481964 237.720505,501.318939 242.044586,502.820953 
	C244.214310,507.880920 241.744186,510.450928 238.301819,512.223755 
	C234.673370,514.092346 230.817215,515.518799 227.060547,517.138428 
	C215.463989,517.774963 203.867432,518.411438 191.444687,519.111206 
	C186.958313,519.806763 183.298141,520.439148 179.637939,521.071533 
z"/>
<path fill="#FEF9F3" opacity="1.000000" stroke="none" 
	d="
M550.997803,731.098938 
	C544.197388,733.325623 538.001404,733.025635 532.906616,728.222473 
	C527.984802,723.582214 527.114136,717.524658 528.632202,711.150146 
	C530.672302,702.583130 538.341919,697.922974 547.341003,699.594849 
	C556.310303,701.261292 560.782471,707.558838 559.558594,717.478149 
	C552.057251,717.478149 544.461914,717.478149 536.866577,717.478149 
	C536.481934,717.966675 536.097351,718.455139 535.712769,718.943665 
	C537.372925,720.992676 538.676147,724.097595 540.787659,724.811523 
	C543.186951,725.622681 547.619690,725.307007 548.859070,723.700073 
	C551.964539,719.673462 555.314636,720.868042 559.261841,721.179565 
	C558.445129,726.248352 555.330811,728.951965 550.997803,731.098938 
M536.685364,713.433472 
	C541.655334,713.433472 546.625305,713.433472 551.787415,713.433472 
	C551.434021,708.653625 549.231384,706.203918 544.988220,705.934937 
	C540.196716,705.631165 537.116638,707.778809 536.685364,713.433472 
z"/>
<path fill="#FEF9F3" opacity="1.000000" stroke="none" 
	d="
M431.496063,729.587769 
	C424.788239,723.508362 423.104797,714.571106 427.029785,707.201355 
	C430.435181,700.807251 437.981598,697.909241 445.971893,699.926941 
	C453.782806,701.899353 457.821655,708.405518 456.487732,717.537476 
	C448.989441,717.537476 441.394012,717.537476 433.798584,717.537476 
	C433.426147,718.013245 433.053741,718.489014 432.681305,718.964783 
	C434.367615,721.011169 435.700562,724.105347 437.834351,724.824890 
	C440.224731,725.631042 444.680603,725.288025 445.877838,723.683777 
	C448.943726,719.575623 452.406738,721.034302 456.004425,721.010925 
	C455.283752,731.501709 440.192108,735.543945 431.496063,729.587769 
M433.326111,712.713074 
	C438.339142,713.223572 443.352173,713.734009 448.645660,714.273071 
	C448.710144,709.082397 446.679474,706.620483 442.767487,706.024048 
	C438.094513,705.311523 434.721344,707.114868 433.326111,712.713074 
z"/>
<path fill="#FEFAF6" opacity="1.000000" stroke="none" 
	d="
M570.700928,659.403381 
	C562.810181,653.792480 563.374634,640.348938 568.384094,634.926758 
	C574.038757,628.806213 584.953186,627.696167 591.563171,632.840332 
	C597.915649,637.784119 599.699280,647.792908 595.505249,654.961487 
	C591.516907,661.778625 582.532104,664.590393 574.505798,661.477478 
	C573.277954,661.001221 572.152527,660.260986 570.700928,659.403381 
M574.895569,652.553467 
	C578.249939,656.127075 582.087158,656.463196 586.029907,653.814697 
	C589.218384,651.672974 590.287170,645.586792 588.438049,641.510681 
	C586.677795,637.630310 583.491882,636.330383 579.467529,636.977051 
	C573.601807,637.919678 571.403381,644.478699 574.895569,652.553467 
z"/>
<path fill="#FEFAF6" opacity="1.000000" stroke="none" 
	d="
M444.373322,659.744019 
	C437.798035,653.553101 436.188263,645.173157 439.893158,637.763855 
	C442.999146,631.552246 449.686493,628.594238 457.671661,629.899841 
	C465.963593,631.255615 470.511871,637.682007 469.677094,647.629272 
	C462.082916,647.629272 454.400208,647.629272 446.717499,647.629272 
	C446.352112,648.141296 445.986725,648.653381 445.621307,649.165405 
	C447.308136,651.235657 448.617828,654.239685 450.786957,655.115723 
	C452.992798,656.006531 457.382141,655.791992 458.471741,654.323059 
	C461.498047,650.243286 465.096497,650.939209 468.975586,651.115356 
	C467.717834,661.455261 455.644379,665.766907 444.373322,659.744019 
M461.730316,642.013367 
	C460.648621,637.576477 457.624054,635.611938 453.301392,636.125244 
	C449.076630,636.626953 446.441803,639.034607 446.393921,644.512085 
	C451.676178,643.933594 456.719482,643.381287 461.730316,642.013367 
z"/>
<path fill="#FEFAF6" opacity="1.000000" stroke="none" 
	d="
M505.820984,646.690552 
	C500.412781,647.362976 495.148987,647.645020 489.882019,647.842041 
	C487.453583,647.932861 485.018921,647.857483 482.587097,647.857483 
	C482.250336,648.365479 481.913574,648.873535 481.576813,649.381531 
	C483.352814,651.418762 484.777771,654.401062 487.003418,655.227722 
	C489.233459,656.056030 493.654602,655.677185 494.676086,654.171936 
	C497.532806,649.962463 501.157318,651.213135 504.771851,650.997009 
	C504.506470,657.875916 497.752258,663.102478 489.745117,662.819092 
	C480.223083,662.482056 473.819519,655.551636 474.000305,645.778931 
	C474.181458,635.984009 480.891632,629.340637 490.427124,629.515747 
	C500.259674,629.696289 506.022400,635.908813 505.820984,646.690552 
M491.990540,636.159607 
	C485.267700,636.086792 482.819092,638.116394 482.820618,643.992188 
	C487.114838,643.992188 491.411041,644.005432 495.706940,643.977539 
	C496.331177,643.973511 496.954193,643.772705 497.633881,643.653076 
	C497.930511,639.794495 495.974426,637.654541 491.990540,636.159607 
z"/>
<path fill="#FEFAF6" opacity="1.000000" stroke="none" 
	d="
M663.513916,651.436890 
	C660.389587,636.289124 670.135864,627.698181 682.735657,629.951050 
	C689.608521,631.179810 694.490356,636.864258 694.885437,643.812195 
	C695.053406,646.765259 694.163513,648.005310 691.002380,647.909546 
	C684.539917,647.713684 678.067444,647.850830 670.393127,648.957642 
	C671.981140,651.057617 673.177612,654.199768 675.260620,654.982544 
	C677.635254,655.874817 682.139832,655.715576 683.360352,654.161316 
	C686.504883,650.156921 690.007629,650.937012 693.880981,651.223633 
	C692.506958,658.118042 687.829224,661.940491 680.079102,662.689148 
	C672.521057,663.419250 666.487671,659.417297 663.513916,651.436890 
M684.640076,643.993103 
	C688.682251,642.080139 685.871948,639.192261 684.517883,638.492981 
	C682.002380,637.193787 678.707520,636.401489 675.955444,636.823059 
	C672.704834,637.321045 670.921875,640.101868 671.285156,644.001526 
	C675.578003,644.001526 679.689392,644.001526 684.640076,643.993103 
z"/>
<path fill="#F6A68D" opacity="1.000000" stroke="none" 
	d="
M186.078735,550.496826 
	C191.366913,554.345581 196.570923,558.671631 201.862579,562.887573 
	C203.116028,563.886230 204.663757,564.515442 206.403671,565.929810 
	C207.602325,568.638000 208.473419,570.731079 209.344513,572.824097 
	C209.925095,576.542236 211.604095,580.726807 207.266205,583.171570 
	C200.481461,586.995422 193.548309,586.314819 186.764236,582.812317 
	C183.025162,580.882080 182.289429,577.752258 183.170547,573.548035 
	C184.161713,565.735291 185.094162,558.334595 186.078735,550.496826 
z"/>
<path fill="#FEF5ED" opacity="1.000000" stroke="none" 
	d="
M384.426331,655.765015 
	C384.426392,644.025818 384.426392,632.755798 384.426392,621.327026 
	C393.226166,621.327026 401.326172,621.327026 409.729370,621.327026 
	C409.729370,623.437073 409.729370,625.347046 409.729370,627.771179 
	C404.310150,627.771179 398.897308,627.771179 393.187500,627.771179 
	C393.187500,631.673523 393.187500,635.067688 393.187500,638.843628 
	C397.556152,638.843628 401.684296,638.843628 406.183197,638.843628 
	C406.183197,640.931030 406.183197,642.647400 406.183197,644.867676 
	C402.001770,644.867676 397.759033,644.867676 393.076660,644.867676 
	C393.076660,650.763123 393.076660,656.182190 393.076660,661.901855 
	C390.045349,661.901855 387.468475,661.901855 384.426300,661.901855 
	C384.426300,659.806824 384.426300,658.020508 384.426331,655.765015 
z"/>
<path fill="#FEFAF6" opacity="1.000000" stroke="none" 
	d="
M512.505005,711.267517 
	C513.127930,709.489990 513.569275,708.065002 514.035706,706.648376 
	C516.412415,699.429565 516.414734,699.430298 524.985718,700.120728 
	C521.239441,710.292297 517.633789,720.346741 513.721863,730.280518 
	C513.343262,731.242065 511.107880,731.740112 509.661743,731.947998 
	C507.712952,732.228088 505.693604,732.017517 503.211853,732.017517 
	C499.331573,721.554993 495.446686,711.080139 491.538361,700.542053 
	C499.658173,698.841003 499.753998,698.901611 502.183746,705.957153 
	C504.052948,711.384888 505.951416,716.802551 508.262665,723.449280 
	C509.912445,718.658630 511.123749,715.141296 512.505005,711.267517 
z"/>
<path fill="#FEF4EA" opacity="1.000000" stroke="none" 
	d="
M457.993164,757.976807 
	C460.108459,757.752136 462.223724,757.527405 464.722351,757.262024 
	C465.926270,762.609436 467.045441,767.580444 468.448212,773.811096 
	C470.012939,768.519836 471.021271,764.335938 472.560486,760.357483 
	C473.047913,759.097595 474.957245,757.626343 476.207123,757.634277 
	C477.491089,757.642334 479.410889,759.080566 479.919861,760.347778 
	C481.383972,763.993408 482.276093,767.868774 484.427429,771.750427 
	C485.233368,768.346313 486.339264,764.979187 486.765045,761.528198 
	C487.238007,757.694885 488.917999,756.619263 492.769440,758.015076 
	C491.088989,764.431152 489.548157,770.857544 487.615997,777.164062 
	C487.288361,778.233459 485.220856,779.493469 484.061127,779.398376 
	C482.654968,779.283020 480.662750,778.114380 480.147461,776.887695 
	C478.654541,773.333557 477.774109,769.522095 475.671661,765.768799 
	C474.532715,769.324951 473.647827,772.994812 472.131470,776.382019 
	C471.513000,777.763611 469.517029,779.359802 468.163025,779.346069 
	C466.819580,779.332520 464.803284,777.676453 464.283966,776.290466 
	C462.177063,770.666992 460.532562,764.870300 458.328735,759.098755 
	C457.957733,758.698975 457.975433,758.337952 457.993164,757.976807 
z"/>
<path fill="#FEF5ED" opacity="1.000000" stroke="none" 
	d="
M486.402588,798.021667 
	C486.772247,807.656372 486.772247,817.152344 486.772247,827.430603 
	C484.915161,826.763611 483.058350,826.096680 480.410858,825.145752 
	C475.706726,828.195068 470.769775,828.123718 467.332520,824.195862 
	C463.862152,820.230164 463.825989,811.974792 467.261200,807.935791 
	C470.612762,803.995361 475.667725,803.851807 481.814392,807.764893 
	C481.814392,804.480896 481.814392,801.411194 481.814392,797.882996 
	C483.462463,797.882996 484.747711,797.882996 486.402588,798.021667 
M481.043884,812.569031 
	C477.180237,808.785278 472.314240,808.870972 471.151154,813.125610 
	C470.518188,815.440918 471.197144,818.764832 472.571777,820.735962 
	C473.400604,821.924500 477.092346,822.238342 478.806091,821.447205 
	C482.072052,819.939575 482.635834,816.699585 481.043884,812.569031 
z"/>
<path fill="#28190E" opacity="1.000000" stroke="none" 
	d="
M209.717712,572.736023 
	C208.473419,570.731079 207.602325,568.638000 206.633987,566.269104 
	C208.067337,565.766602 209.756317,565.008545 211.100021,565.409058 
	C215.921982,566.846008 219.131058,564.737183 221.812561,561.166748 
	C226.413528,555.040466 227.767502,547.946716 227.667343,540.497925 
	C227.566727,533.014099 227.310028,525.532349 227.091141,517.594116 
	C230.817215,515.518799 234.673370,514.092346 238.301819,512.223755 
	C241.744186,510.450928 244.214310,507.880920 242.192871,503.125610 
	C248.327484,507.440796 248.080780,511.275818 241.264038,514.947815 
	C240.971436,515.105469 240.676743,515.310791 240.360687,515.365845 
	C231.381927,516.930176 229.779907,522.746094 230.726227,530.801514 
	C231.419464,536.702393 231.404236,542.792419 230.794937,548.704346 
	C230.365326,552.872742 228.897797,557.124878 227.026596,560.911194 
	C223.874008,567.290283 218.759262,570.366699 211.467606,567.331360 
	C210.842773,571.919556 210.939957,572.103455 213.767868,572.391235 
	C212.352615,572.258728 211.221756,572.453369 209.717712,572.736023 
z"/>
<path fill="#FEF5ED" opacity="1.000000" stroke="none" 
	d="
M423.888611,646.451721 
	C423.884369,651.712280 423.884369,656.519653 423.884369,661.769775 
	C421.036957,661.769775 418.378174,661.769775 415.724792,661.769775 
	C415.724792,651.084473 415.724792,640.688660 415.724792,630.131714 
	C418.326080,630.131714 420.630890,630.131714 423.300354,630.131714 
	C423.628052,631.310242 423.987793,632.604004 424.272247,633.627014 
	C427.612976,632.089172 430.903595,630.574402 434.808105,628.777039 
	C434.808105,632.528992 434.808105,635.131287 434.808105,637.886108 
	C429.739990,638.687317 424.010742,638.664734 423.888611,646.451721 
z"/>
<path fill="#FEF9F3" opacity="1.000000" stroke="none" 
	d="
M383.826660,772.556152 
	C386.145020,766.275452 388.223083,760.305603 390.647919,754.480042 
	C391.115509,753.356628 392.921814,752.176208 394.144989,752.138489 
	C395.639587,752.092407 398.107697,752.844727 398.536987,753.906189 
	C401.881561,762.175171 404.836884,770.601685 407.957581,779.102478 
	C404.534912,779.878174 401.967468,780.139038 400.909821,776.214722 
	C400.655334,775.270508 398.905731,774.249207 397.750153,774.123413 
	C394.961761,773.820129 392.118073,774.025085 389.260040,774.025085 
	C387.987915,777.592712 386.911163,781.240173 381.548340,778.817566 
	C382.258698,776.876099 382.982941,774.896729 383.826660,772.556152 
M397.894073,766.991150 
	C396.887329,764.324463 395.880585,761.657715 394.576263,758.202759 
	C393.084381,762.513000 391.918457,765.881531 390.752533,769.250000 
	C391.074524,769.682068 391.396515,770.114136 391.718506,770.546204 
	C393.834900,769.631104 395.951324,768.716064 397.894073,766.991150 
z"/>
<path fill="#FEF4EA" opacity="1.000000" stroke="none" 
	d="
M508.088013,757.139282 
	C514.686890,758.336548 516.789062,760.627014 517.002686,766.781494 
	C517.141052,770.768555 517.028809,774.764343 517.028809,779.159424 
	C515.141907,779.159424 513.443848,779.159424 511.101990,779.159424 
	C511.101990,775.138733 511.100891,771.197754 511.102356,767.256836 
	C511.103546,764.123657 509.799133,762.119446 506.433929,762.062500 
	C503.177704,762.007446 501.415680,763.910156 501.234772,766.931213 
	C500.997223,770.897400 501.176453,774.888550 501.176453,779.214111 
	C499.205688,779.214111 497.648468,779.214111 495.748566,779.214111 
	C495.748566,769.675232 495.748566,760.268677 495.748566,750.408630 
	C497.348450,750.310364 498.895111,750.215332 500.945099,750.089417 
	C500.945099,753.529663 500.945099,756.595459 500.945099,759.921875 
	C503.528778,758.861328 505.610565,758.006836 508.088013,757.139282 
z"/>
<path fill="#FEF9F3" opacity="1.000000" stroke="none" 
	d="
M518.427734,824.834656 
	C512.819153,828.227966 507.874695,827.887024 504.678864,824.009338 
	C501.205750,819.795166 501.295288,811.887085 504.862366,807.806885 
	C508.087250,804.118103 513.066528,803.902771 517.705078,806.853760 
	C520.134766,805.982056 522.179260,805.248535 524.738281,804.330383 
	C524.738281,812.208740 524.738281,819.269592 524.738281,827.866943 
	C522.431885,826.646301 520.630737,825.693054 518.427734,824.834656 
M518.720520,819.309448 
	C519.915894,815.311768 520.006836,811.305481 515.168823,810.200684 
	C513.251526,809.763000 509.356384,811.416870 508.839355,812.952515 
	C508.058777,815.271118 508.560028,819.118835 510.130219,820.868408 
	C512.360168,823.353149 515.833618,822.876770 518.720520,819.309448 
z"/>
<path fill="#FFFFFF" opacity="1.000000" stroke="none" 
	d="
M462.999420,714.998352 
	C462.999420,706.207092 462.999420,697.915649 462.999420,689.313965 
	C465.680359,689.313965 468.075653,689.313965 470.827057,689.313965 
	C470.827057,703.296509 470.827057,717.331604 470.827057,731.684448 
	C468.454712,731.684448 466.047699,731.684448 462.999420,731.684448 
	C462.999420,726.350342 462.999420,720.924255 462.999420,714.998352 
z"/>
<path fill="#FEF4EA" opacity="1.000000" stroke="none" 
	d="
M573.962036,769.587341 
	C571.569946,769.586914 569.654541,769.586914 567.574585,769.586914 
	C568.818604,775.104370 572.130676,776.484070 575.836487,774.024841 
	C577.756470,772.750732 580.092224,772.103210 583.149048,770.778748 
	C580.948486,777.604919 576.995056,780.321960 571.621033,779.861450 
	C566.540894,779.426147 562.738098,776.070862 561.930298,771.311279 
	C560.870300,765.064697 563.279968,759.953674 568.185669,758.043640 
	C573.134155,756.116943 579.091492,757.503052 581.546631,761.640930 
	C582.656616,763.511780 583.092346,766.007202 583.018433,768.191772 
	C583.000916,768.712280 579.733459,769.223694 577.926392,769.545776 
	C576.797241,769.747009 575.603516,769.586182 573.962036,769.587341 
M577.488464,765.075256 
	C575.504822,764.023193 573.513550,762.158386 571.539856,762.176819 
	C569.967651,762.191467 568.416809,764.504333 566.856506,765.796997 
	C567.145386,766.398132 567.434265,766.999329 567.723206,767.600525 
	C571.033508,767.025269 574.343811,766.450012 577.488464,765.075256 
z"/>
<path fill="#FEF4EA" opacity="1.000000" stroke="none" 
	d="
M527.281616,758.010498 
	C535.373291,756.154297 541.220215,759.323547 542.217529,765.666260 
	C542.637329,768.336243 542.134216,769.762451 539.022705,769.628967 
	C534.945007,769.454102 530.854126,769.586121 526.648193,769.586121 
	C527.687683,775.003906 531.033020,776.505554 534.729553,774.096497 
	C536.686279,772.821228 539.000366,772.094177 541.966125,770.751648 
	C540.256042,777.176147 536.957886,779.783386 531.809021,779.880798 
	C526.792358,779.975769 522.473022,776.993774 521.147522,772.520386 
	C519.380615,766.557312 521.288330,761.787415 527.281616,758.010498 
M533.900940,762.174744 
	C530.036987,761.373047 527.072021,762.015869 526.418579,766.707031 
	C529.947937,766.707031 533.264343,766.707031 537.545288,766.707031 
	C536.207092,764.829529 535.401306,763.699097 533.900940,762.174744 
z"/>
<path fill="#FEF5ED" opacity="1.000000" stroke="none" 
	d="
M457.611389,757.775879 
	C457.975433,758.337952 457.957733,758.698975 457.927124,759.330872 
	C454.183105,768.836731 450.638977,778.155823 446.555450,787.232300 
	C445.784363,788.946289 442.868011,789.695068 440.703705,791.036621 
	C440.152740,789.482727 439.884674,789.086548 439.981903,788.949402 
	C445.537231,781.112671 442.855865,773.736084 438.890991,766.333008 
	C437.504395,763.743958 436.557861,760.919189 435.367889,758.101440 
	C439.713928,756.411011 441.895874,757.786499 443.093536,761.780518 
	C444.034637,764.919067 445.521973,767.893860 447.231232,772.078796 
	C448.902222,767.721008 450.400909,764.522766 451.337708,761.167664 
	C452.254333,757.884949 454.120392,756.895569 457.611389,757.775879 
z"/>
<path fill="#FEF5ED" opacity="1.000000" stroke="none" 
	d="
M411.290710,826.996704 
	C410.500763,823.322632 410.010681,819.683838 409.822052,816.029480 
	C409.655670,812.806152 409.265564,809.894470 405.219849,809.648438 
	C401.001343,809.391846 399.763153,812.140747 399.653595,815.676880 
	C399.541351,819.299622 399.628693,822.928528 399.628693,826.788452 
	C397.534332,826.788452 395.966095,826.788452 394.179382,826.788452 
	C394.179382,819.537842 394.179382,812.456482 394.179382,804.505249 
	C396.633209,805.260681 398.680145,805.890808 401.294952,806.695740 
	C409.146118,802.128479 415.094177,805.300293 415.530029,815.225830 
	C415.689728,818.862671 415.555786,822.512451 415.555786,826.575623 
	C414.164673,826.738770 412.943176,826.882019 411.290710,826.996704 
z"/>
<path fill="#FEF4EA" opacity="1.000000" stroke="none" 
	d="
M422.067902,762.053467 
	C418.076721,762.393372 416.982422,764.776672 416.937317,767.924133 
	C416.885315,771.554871 416.925232,775.186951 416.925232,779.256836 
	C414.999359,779.367126 413.431519,779.456909 411.475952,779.568848 
	C411.475952,772.146301 411.475952,765.120728 411.475952,757.075317 
	C413.790985,757.752136 415.743408,758.322998 418.615234,759.162598 
	C420.736816,757.489990 424.314392,755.953125 428.416931,758.206299 
	C432.339417,760.360657 432.770111,764.222473 432.866943,768.121338 
	C432.956665,771.733398 432.886047,775.349548 432.886047,779.300964 
	C430.823944,779.400452 429.238464,779.476929 426.957672,779.586914 
	C426.957672,775.499817 426.935791,771.743469 426.964417,767.987488 
	C426.988403,764.837402 426.169922,762.368408 422.067902,762.053467 
z"/>
<path fill="#FEF5ED" opacity="1.000000" stroke="none" 
	d="
M441.927368,804.971313 
	C443.500061,805.565308 444.654449,806.163086 444.759613,806.217590 
	C449.117004,805.997253 453.099182,804.856140 456.437500,805.858826 
	C460.863312,807.188110 461.055939,811.824219 461.037476,815.938782 
	C461.021881,819.409119 461.034271,822.879639 461.034271,826.688721 
	C459.086151,826.688721 457.387848,826.688721 455.114441,826.688721 
	C455.114441,822.689697 455.093903,818.748108 455.120972,814.806885 
	C455.142700,811.645386 453.804138,809.711792 450.474609,809.617249 
	C447.235504,809.525269 445.418518,811.358032 445.230743,814.388855 
	C444.985657,818.345459 445.170746,822.328674 445.170746,826.724121 
	C443.308289,826.850037 441.761078,826.954712 439.502869,827.107422 
	C439.502869,820.048828 439.455963,813.319702 439.589722,806.594177 
	C439.600708,806.041992 440.840271,805.514282 441.927368,804.971313 
z"/>
<path fill="#FFFFFF" opacity="1.000000" stroke="none" 
	d="
M486.998657,728.778564 
	C485.902557,734.948669 481.818695,730.576782 479.075226,732.216064 
	C479.075226,721.177979 479.075226,710.816040 479.075226,700.142456 
	C481.596741,700.142456 483.994354,700.142456 486.999603,700.142456 
	C486.999603,709.511230 486.999603,718.905334 486.998657,728.778564 
z"/>
<path fill="#E3BB5B" opacity="1.000000" stroke="none" 
	d="
M28.225044,1049.473022 
	C37.897991,1055.335205 47.928909,1061.043213 57.098919,1067.902222 
	C65.532951,1074.210693 75.131256,1074.015381 84.915878,1075.400879 
	C84.688416,1076.262451 84.186768,1077.407959 83.657112,1077.420898 
	C78.684235,1077.543701 73.706573,1077.472656 68.730301,1077.457642 
	C63.082153,1074.420532 57.304462,1071.598145 51.819519,1068.290405 
	C45.345589,1064.386353 39.004795,1060.229980 32.863884,1055.823975 
	C30.891506,1054.408691 29.736534,1051.854126 28.225044,1049.473022 
z"/>
<path fill="#FEF4EA" opacity="1.000000" stroke="none" 
	d="
M553.233398,760.073059 
	C555.301147,758.851746 557.102478,757.857178 559.556885,756.502075 
	C559.556885,759.197754 559.556885,760.931763 559.556885,762.867310 
	C547.805237,763.667786 553.657043,773.114563 551.560608,779.210449 
	C550.232849,779.210449 548.679626,779.210449 546.767090,779.210449 
	C546.767090,772.113464 546.767090,765.101074 546.767090,758.176208 
	C549.855835,756.329468 551.626709,757.727844 553.233398,760.073059 
z"/>
<path fill="#28190E" opacity="1.000000" stroke="none" 
	d="
M355.902588,1073.950928 
	C356.134460,1073.571655 356.366333,1073.192383 356.671906,1072.723145 
	C357.792267,1074.278076 358.838928,1075.922852 359.885620,1077.567627 
	C358.546967,1078.336914 357.213409,1079.765625 355.868927,1079.776001 
	C337.815979,1079.914917 319.761505,1079.870728 301.707672,1079.798950 
	C300.863892,1079.795532 300.022858,1079.107666 299.523254,1078.368652 
	C316.735352,1077.965820 333.605103,1077.974121 350.473602,1077.831299 
	C352.023193,1077.818237 353.564636,1076.840332 355.403198,1076.198730 
	C355.765228,1075.375122 355.833893,1074.662964 355.902588,1073.950928 
z"/>
<path fill="#FFFFFF" opacity="1.000000" stroke="none" 
	d="
M434.167908,807.057617 
	C434.167877,813.818054 434.167877,820.087463 434.167877,826.672974 
	C432.339600,826.672974 430.816254,826.672974 429.060120,826.672974 
	C429.060120,817.620850 429.060120,808.724915 429.060120,799.268066 
	C430.468536,799.179871 431.995575,799.084229 434.167969,798.948242 
	C434.167969,801.720947 434.167969,804.143799 434.167908,807.057617 
z"/>
<path fill="#28190E" opacity="1.000000" stroke="none" 
	d="
M246.073914,615.766968 
	C245.047806,616.126709 243.954865,616.068787 242.625092,615.886230 
	C241.866013,609.505981 241.790863,603.168640 240.667007,597.023071 
	C239.896133,592.807556 237.667175,588.858643 236.110474,584.424316 
	C242.107315,586.119141 243.024475,591.712341 244.041016,596.623047 
	C245.307022,602.738708 245.404831,609.096191 246.073914,615.766968 
z"/>
<path fill="#FEF4EA" opacity="1.000000" stroke="none" 
	d="
M386.907257,827.018188 
	C385.341644,826.082214 383.314697,825.173950 383.265594,824.169067 
	C382.966064,818.040955 383.115967,811.890869 383.115967,805.358459 
	C385.066895,805.358459 386.744293,805.358459 388.839722,805.358459 
	C388.839722,812.108032 388.875061,818.732788 388.775635,825.355408 
	C388.767273,825.911072 387.853271,826.453003 386.907257,827.018188 
z"/>
<path fill="#FEF4EA" opacity="1.000000" stroke="none" 
	d="
M498.041901,822.803345 
	C498.698547,828.127075 495.644684,827.100769 492.685181,826.771790 
	C492.685181,819.464417 492.685181,812.393616 492.685181,805.145203 
	C494.428101,805.145203 495.899109,805.145203 498.042053,805.145203 
	C498.042053,810.841858 498.042053,816.585083 498.041901,822.803345 
z"/>
<path fill="#F6A68D" opacity="1.000000" stroke="none" 
	d="
M183.189728,533.504761 
	C183.673172,537.927979 184.156616,542.351196 184.682602,547.195190 
	C182.634109,545.223022 180.341827,542.972900 178.510986,540.395142 
	C176.823990,538.019714 175.258499,535.420044 174.324112,532.685242 
	C173.313278,529.726685 174.090027,527.074463 178.505646,526.314941 
	C180.504837,528.606995 181.847275,531.055847 183.189728,533.504761 
z"/>
<path fill="#E3BB5B" opacity="1.000000" stroke="none" 
	d="
M355.443756,1073.978027 
	C355.833893,1074.662964 355.765228,1075.375122 354.933228,1076.178955 
	C334.819336,1076.234497 315.468781,1076.198242 296.118164,1076.161865 
	C295.526001,1075.829590 294.933807,1075.497314 294.107666,1074.901611 
	C296.055817,1074.426758 298.237457,1074.037720 300.420135,1074.031860 
	C318.608307,1073.982910 336.796661,1074.004639 355.443756,1073.978027 
z"/>
<path fill="#8F6F56" opacity="1.000000" stroke="none" 
	d="
M296.267395,1076.413574 
	C315.468781,1076.198242 334.819336,1076.234497 354.639893,1076.290527 
	C353.564636,1076.840332 352.023193,1077.818237 350.473602,1077.831299 
	C333.605103,1077.974121 316.735352,1077.965820 299.390320,1077.980469 
	C298.082031,1077.529907 297.249329,1077.097534 296.267395,1076.413574 
z"/>
<path fill="#28190E" opacity="1.000000" stroke="none" 
	d="
M68.851044,1077.561768 
	C73.706573,1077.472656 78.684235,1077.543701 83.657112,1077.420898 
	C84.186768,1077.407959 84.688416,1076.262451 85.323608,1075.379395 
	C85.145630,1072.840576 84.847092,1070.564819 84.527275,1067.974731 
	C86.017723,1069.349487 88.041405,1070.805542 88.937202,1072.774658 
	C90.951302,1077.202148 88.569740,1080.228149 83.773529,1079.675293 
	C78.828117,1079.105225 73.904770,1078.343750 68.851044,1077.561768 
z"/>
<path fill="#28190E" opacity="1.000000" stroke="none" 
	d="
M183.583832,533.598633 
	C181.847275,531.055847 180.504837,528.606995 178.849121,526.115356 
	C178.482971,524.990845 178.430084,523.909058 178.296265,522.429932 
	C178.586090,521.806824 178.956833,521.581238 179.482773,521.213562 
	C183.298141,520.439148 186.958313,519.806763 191.055023,519.177124 
	C187.793777,522.310303 184.936096,525.704407 186.688660,531.135864 
	C186.852524,531.643677 184.931152,532.824280 183.583832,533.598633 
z"/>
<path fill="#FEF9F3" opacity="1.000000" stroke="none" 
	d="
M487.948181,690.097290 
	C487.383453,691.618164 486.919708,693.595581 486.148254,693.723938 
	C483.907562,694.096741 481.244080,694.330383 479.356842,693.391541 
	C478.441833,692.936279 478.109283,688.524170 478.880493,688.027649 
	C480.654755,686.885559 483.278534,686.742432 485.531891,686.832947 
	C486.361328,686.866211 487.118500,688.697876 487.948181,690.097290 
z"/>
<path fill="#FEF4EA" opacity="1.000000" stroke="none" 
	d="
M495.020020,801.838989 
	C493.797943,800.476685 492.954834,799.128723 492.111694,797.780762 
	C493.298035,797.134705 494.537476,795.905762 495.655670,796.007690 
	C496.758209,796.108154 497.737976,797.555847 498.771606,798.412537 
	C497.647400,799.559509 496.523193,800.706421 495.020020,801.838989 
z"/>
<path fill="#FEF5ED" opacity="1.000000" stroke="none" 
	d="
M389.290588,799.676270 
	C387.496582,800.428162 385.820892,801.068848 384.130707,801.109558 
	C383.753845,801.118652 382.791443,798.854309 383.073486,797.935974 
	C383.351532,797.030762 385.302490,795.711121 385.757141,795.960876 
	C387.167389,796.735718 388.215179,798.170227 389.290588,799.676270 
z"/>
<path fill="#F6A68D" opacity="1.000000" stroke="none" 
	d="
M184.907867,548.250366 
	C185.209030,548.388794 185.579224,548.795105 186.002121,549.472046 
	C185.695526,549.334595 185.336212,548.926453 184.907867,548.250366 
z"/>
<path fill="#28190E" opacity="1.000000" stroke="none" 
	d="
M355.331299,1069.680420 
	C355.361328,1069.795532 355.451019,1069.877930 355.503357,1069.847900 
	C355.555664,1069.817871 355.594177,1069.529907 355.594177,1069.529907 
	C355.594177,1069.529907 355.301300,1069.565186 355.331299,1069.680420 
z"/>
<path fill="#FDBDA9" opacity="1.000000" stroke="none" 
	d="
M315.280579,718.129150 
	C314.920441,721.021667 313.253845,722.132690 310.003326,722.396606 
	C303.115143,722.955750 296.321716,724.601562 289.439758,725.336182 
	C278.236420,726.532166 266.990479,727.325134 255.769211,728.360596 
	C253.490097,728.570923 251.240524,729.101624 248.697174,729.669434 
	C227.683304,729.217529 206.929337,728.933838 186.227112,727.747498 
	C179.226898,727.346436 172.276535,724.937012 165.452637,722.936462 
	C159.371429,721.153625 155.745804,716.856445 154.953308,710.352478 
	C153.166870,695.690918 151.308517,681.038025 149.662094,665.904846 
	C150.191727,665.222046 150.538666,665.016052 150.885605,664.810059 
	C161.975586,664.891418 173.065582,664.972778 184.883972,665.107788 
	C185.984146,665.331848 186.355911,665.502319 186.727676,665.672729 
	C186.466400,674.160767 186.068039,682.648804 186.068619,691.136841 
	C186.068726,692.687317 187.368149,695.220276 188.620148,695.635986 
	C201.055756,699.764526 213.607529,703.543091 226.532013,707.525024 
	C227.462067,718.131653 227.462067,718.131470 238.242783,718.132324 
	C242.396164,718.132629 246.576797,717.831299 250.696838,718.202393 
	C257.696564,718.832703 263.416962,716.611267 269.249237,712.722900 
	C272.653809,710.453064 277.704987,710.653015 282.441650,709.661560 
	C283.851654,710.511414 284.835419,711.441528 285.819183,712.371582 
	C284.760529,713.265747 283.799591,714.331360 282.615936,715.006287 
	C281.413055,715.692261 279.990540,715.993225 278.664215,716.462769 
	C278.717010,717.007080 278.769806,717.551392 278.822632,718.095703 
	C290.799652,718.095703 302.776703,718.095703 315.280579,718.129150 
z"/>
<path fill="#EBC5A9" opacity="1.000000" stroke="none" 
	d="
M227.378372,628.726501 
	C232.284607,628.247742 237.096939,628.276855 241.899826,628.077942 
	C245.308762,627.936829 246.060104,629.656189 246.084686,632.671692 
	C246.110916,635.886658 244.886520,637.188416 241.679626,637.063904 
	C237.206635,636.890320 232.724854,636.944031 227.812744,636.835693 
	C227.345917,634.226196 227.313171,631.681580 227.378372,628.726501 
z"/>
<path fill="#EBC5A9" opacity="1.000000" stroke="none" 
	d="
M227.415558,692.737793 
	C232.158478,692.265869 236.799973,692.319153 241.428513,692.099487 
	C244.854858,691.936951 246.144485,693.265137 246.096252,696.725769 
	C246.051147,699.962830 244.815186,701.188965 241.644928,701.065491 
	C237.179123,700.891479 232.704346,700.948303 227.798035,700.841125 
	C227.344620,698.232544 227.326599,695.689209 227.415558,692.737793 
z"/>
<path fill="#C10504" opacity="1.000000" stroke="none" 
	d="
M150.871933,664.367065 
	C150.538666,665.016052 150.191727,665.222046 149.562927,665.542480 
	C148.627365,662.941528 147.595718,660.254028 147.391876,657.505249 
	C146.815964,649.739502 146.545563,641.949890 146.238525,634.166382 
	C146.178131,632.635803 146.492722,631.090332 146.634369,629.551758 
	C147.337509,629.543091 148.040649,629.534485 148.743790,629.525879 
	C149.448624,640.991943 150.153442,652.458008 150.871933,664.367065 
z"/>
<path fill="#C10504" opacity="1.000000" stroke="none" 
	d="
M186.938812,665.255981 
	C186.355911,665.502319 185.984146,665.331848 185.348572,665.005310 
	C185.084778,652.467529 185.084778,640.085754 185.084778,627.704041 
	C186.002502,627.715576 186.920212,627.727112 187.837936,627.738647 
	C187.631729,640.105103 188.687286,652.450623 186.938812,665.255981 
z"/>
<path fill="#EBC5A9" opacity="1.000000" stroke="none" 
	d="
M288.085876,631.940491 
	C287.764465,629.385498 286.505310,626.484253 287.296967,624.340271 
	C289.697754,617.838135 295.559784,622.184937 299.783051,621.189697 
	C302.292389,620.598450 304.890747,621.263123 304.969360,624.796265 
	C305.013458,626.778259 305.334381,628.856445 304.847351,630.711975 
	C304.522400,631.949890 303.036560,633.731506 301.996063,633.783447 
	C297.911469,633.987305 293.797424,633.601257 289.398132,633.153442 
	C289.101959,632.872620 289.151276,632.818726 289.545837,632.840149 
	C293.001770,632.652161 296.060638,632.384705 299.125305,632.250183 
	C301.997406,632.124207 303.130432,630.862671 303.049255,627.872375 
	C302.973907,625.095886 302.033600,623.957703 299.252258,624.051758 
	C295.672241,624.172852 292.085022,624.081238 288.194733,624.081238 
	C288.194733,627.241699 288.194733,629.541077 288.166870,631.864746 
	C288.139038,631.889099 288.085876,631.940491 288.085876,631.940491 
z"/>
<path fill="#FEF5ED" opacity="1.000000" stroke="none" 
	d="
M332.950500,672.985107 
	C332.347382,682.280029 325.038696,684.538391 317.782104,687.212097 
	C317.612946,683.220215 318.006622,679.388306 321.942596,677.481262 
	C323.851410,676.556396 326.373199,676.896667 328.617493,676.664185 
	C328.772095,677.162903 328.926727,677.661621 329.081329,678.160339 
	C330.211121,676.588196 331.340881,675.016113 332.727386,673.224304 
	C332.984100,673.004639 332.950500,672.985107 332.950500,672.985107 
z"/>
<path fill="#FEF5ED" opacity="1.000000" stroke="none" 
	d="
M299.752502,674.530640 
	C300.751434,675.240112 301.849609,676.189453 303.062622,677.238037 
	C309.672119,674.873047 314.650726,678.804993 314.760162,686.848694 
	C307.709869,685.392334 301.510254,682.885376 299.752502,674.530640 
M308.327637,680.740662 
	C308.441589,680.631714 308.641174,680.525879 308.645325,680.412842 
	C308.649506,680.300537 308.457214,680.180908 308.351105,680.064514 
	C308.236725,680.173218 308.122375,680.281860 308.327637,680.740662 
z"/>
<path fill="#8F6F56" opacity="1.000000" stroke="none" 
	d="
M336.855652,623.239563 
	C335.432251,625.826050 322.879944,629.048462 321.074066,627.435486 
	C320.477875,626.902954 319.978088,625.375366 320.305420,624.888367 
	C320.909271,623.989929 322.139221,623.003113 323.139954,622.968445 
	C327.595001,622.814270 332.061249,622.984131 336.855652,623.239563 
z"/>
<path fill="#FEF5ED" opacity="1.000000" stroke="none" 
	d="
M332.993530,673.021301 
	C333.002930,673.037964 333.052032,672.917969 333.001282,672.951538 
	C332.950500,672.985107 332.984100,673.004639 332.993530,673.021301 
z"/>
<path fill="#EBC5A9" opacity="1.000000" stroke="none" 
	d="
M289.075714,632.898071 
	C288.730347,632.830322 288.474792,632.648071 288.184326,632.158569 
	C288.085876,631.940491 288.139038,631.889099 288.379761,631.969238 
	C288.886749,632.244080 289.063690,632.500549 289.151276,632.818726 
	C289.151276,632.818726 289.101959,632.872620 289.075714,632.898071 
z"/>
<path fill="#FEF4EA" opacity="1.000000" stroke="none" 
	d="
M266.890869,672.541138 
	C263.275909,674.767883 259.792999,676.720215 255.925079,678.888306 
	C256.070953,672.324097 262.357056,668.153259 267.431976,670.414551 
	C267.547699,670.466064 267.170288,671.624512 266.890869,672.541138 
z"/>
<path fill="#FEF4EA" opacity="1.000000" stroke="none" 
	d="
M252.607635,678.186646 
	C248.491013,676.351624 244.682404,674.504333 240.873795,672.656982 
	C248.698563,668.936951 252.962540,671.495850 252.607635,678.186646 
z"/>
<path fill="#FEF4EA" opacity="1.000000" stroke="none" 
	d="
M240.013062,667.949768 
	C240.013062,667.949768 240.138153,667.998352 240.080139,667.991394 
	C240.022110,667.984436 240.013062,667.949768 240.013062,667.949768 
z"/>
<path fill="#FEF4EA" opacity="1.000000" stroke="none" 
	d="
M240.030045,667.989380 
	C240.037979,667.994385 239.908966,667.795959 239.908966,667.795959 
	C239.908966,667.795959 239.892975,668.043396 239.953018,667.996582 
	C240.013062,667.949768 240.022110,667.984436 240.030045,667.989380 
z"/>
<path fill="#EBC5A9" opacity="1.000000" stroke="none" 
	d="
M305.447174,1054.700684 
	C309.499573,1054.245850 311.437592,1056.115845 310.377350,1059.531006 
	C309.985718,1060.792358 307.034485,1062.162964 305.445068,1061.960205 
	C302.142242,1061.538574 302.060699,1058.125122 305.447174,1054.700684 
z"/>
<path fill="#E3BB5B" opacity="1.000000" stroke="none" 
	d="
M46.452736,1047.709473 
	C45.022324,1045.653931 43.198406,1043.677490 43.185165,1041.688965 
	C43.177784,1040.580200 46.468616,1038.297607 47.757973,1038.617798 
	C49.444229,1039.036743 51.542408,1041.364258 51.813995,1043.125122 
	C52.291798,1046.222778 50.066635,1047.902588 46.452736,1047.709473 
M49.673813,1042.019531 
	C48.226913,1041.887451 46.780014,1041.755371 45.333115,1041.623291 
	C45.672180,1042.839478 46.011242,1044.055542 46.350315,1045.271729 
	C47.527023,1044.405762 48.703735,1043.539673 49.673813,1042.019531 
z"/>
<path fill="#F27500" opacity="1.000000" stroke="none" 
	d="
M400.426605,698.124817 
	C409.875763,700.318176 413.305725,705.316528 411.995728,714.402771 
	C410.913055,721.912292 405.039276,725.213989 393.318787,724.621033 
	C393.318787,715.982910 393.318787,707.302490 393.318787,698.084167 
	C395.473724,698.084167 397.736725,698.084167 400.426605,698.124817 
z"/>
<path fill="#F27A0B" opacity="1.000000" stroke="none" 
	d="
M536.505859,713.075378 
	C537.116638,707.778809 540.196716,705.631165 544.988220,705.934937 
	C549.231384,706.203918 551.434021,708.653625 551.787415,713.433472 
	C546.625305,713.433472 541.655334,713.433472 536.505859,713.075378 
z"/>
<path fill="#F27A0B" opacity="1.000000" stroke="none" 
	d="
M433.359253,712.323120 
	C434.721344,707.114868 438.094513,705.311523 442.767487,706.024048 
	C446.679474,706.620483 448.710144,709.082397 448.645660,714.273071 
	C443.352173,713.734009 438.339142,713.223572 433.359253,712.323120 
z"/>
<path fill="#F27500" opacity="1.000000" stroke="none" 
	d="
M574.643127,652.233032 
	C571.403381,644.478699 573.601807,637.919678 579.467529,636.977051 
	C583.491882,636.330383 586.677795,637.630310 588.438049,641.510681 
	C590.287170,645.586792 589.218384,651.672974 586.029907,653.814697 
	C582.087158,656.463196 578.249939,656.127075 574.643127,652.233032 
z"/>
<path fill="#F27A0B" opacity="1.000000" stroke="none" 
	d="
M461.746552,642.421143 
	C456.719482,643.381287 451.676178,643.933594 446.393921,644.512085 
	C446.441803,639.034607 449.076630,636.626953 453.301392,636.125244 
	C457.624054,635.611938 460.648621,637.576477 461.746552,642.421143 
z"/>
<path fill="#F27A0B" opacity="1.000000" stroke="none" 
	d="
M492.374695,636.259521 
	C495.974426,637.654541 497.930511,639.794495 497.633881,643.653076 
	C496.954193,643.772705 496.331177,643.973511 495.706940,643.977539 
	C491.411041,644.005432 487.114838,643.992188 482.820618,643.992188 
	C482.819092,638.116394 485.267700,636.086792 492.374695,636.259521 
z"/>
<path fill="#F27A0B" opacity="1.000000" stroke="none" 
	d="
M684.220459,643.997314 
	C679.689392,644.001526 675.578003,644.001526 671.285156,644.001526 
	C670.921875,640.101868 672.704834,637.321045 675.955444,636.823059 
	C678.707520,636.401489 682.002380,637.193787 684.517883,638.492981 
	C685.871948,639.192261 688.682251,642.080139 684.220459,643.997314 
z"/>
<path fill="#F27A0B" opacity="1.000000" stroke="none" 
	d="
M481.212036,812.934326 
	C482.635834,816.699585 482.072052,819.939575 478.806091,821.447205 
	C477.092346,822.238342 473.400604,821.924500 472.571777,820.735962 
	C471.197144,818.764832 470.518188,815.440918 471.151154,813.125610 
	C472.314240,808.870972 477.180237,808.785278 481.212036,812.934326 
z"/>
<path fill="#F27A0B" opacity="1.000000" stroke="none" 
	d="
M397.980896,767.396057 
	C395.951324,768.716064 393.834900,769.631104 391.718506,770.546204 
	C391.396515,770.114136 391.074524,769.682068 390.752533,769.250000 
	C391.918457,765.881531 393.084381,762.513000 394.576263,758.202759 
	C395.880585,761.657715 396.887329,764.324463 397.980896,767.396057 
z"/>
<path fill="#F27A0B" opacity="1.000000" stroke="none" 
	d="
M518.496582,819.621460 
	C515.833618,822.876770 512.360168,823.353149 510.130219,820.868408 
	C508.560028,819.118835 508.058777,815.271118 508.839355,812.952515 
	C509.356384,811.416870 513.251526,809.763000 515.168823,810.200684 
	C520.006836,811.305481 519.915894,815.311768 518.496582,819.621460 
z"/>
<path fill="#F27A0B" opacity="1.000000" stroke="none" 
	d="
M577.571289,765.474976 
	C574.343811,766.450012 571.033508,767.025269 567.723206,767.600525 
	C567.434265,766.999329 567.145386,766.398132 566.856506,765.796997 
	C568.416809,764.504333 569.967651,762.191467 571.539856,762.176819 
	C573.513550,762.158386 575.504822,764.023193 577.571289,765.474976 
z"/>
<path fill="#F27A0B" opacity="1.000000" stroke="none" 
	d="
M534.248291,762.371704 
	C535.401306,763.699097 536.207092,764.829529 537.545288,766.707031 
	C533.264343,766.707031 529.947937,766.707031 526.418579,766.707031 
	C527.072021,762.015869 530.036987,761.373047 534.248291,762.371704 
z"/>
<path fill="#8F6F56" opacity="1.000000" stroke="none" 
	d="
M289.545837,632.840149 
	C289.063690,632.500549 288.886749,632.244080 288.407593,631.944885 
	C288.194733,629.541077 288.194733,627.241699 288.194733,624.081238 
	C292.085022,624.081238 295.672241,624.172852 299.252258,624.051758 
	C302.033600,623.957703 302.973907,625.095886 303.049255,627.872375 
	C303.130432,630.862671 301.997406,632.124207 299.125305,632.250183 
	C296.060638,632.384705 293.001770,632.652161 289.545837,632.840149 
z"/>
<path fill="#E7A979" opacity="1.000000" stroke="none" 
	d="
M308.167816,680.565613 
	C308.122375,680.281860 308.236725,680.173218 308.351105,680.064514 
	C308.457214,680.180908 308.649506,680.300537 308.645325,680.412842 
	C308.641174,680.525879 308.441589,680.631714 308.167816,680.565613 
z"/>
<path fill="#FEF4EA" opacity="1.000000" stroke="none" 
	d="
M49.777130,1042.346680 
	C48.703735,1043.539673 47.527023,1044.405762 46.350311,1045.271729 
	C46.011242,1044.055542 45.672180,1042.839478 45.333115,1041.623291 
	C46.780014,1041.755371 48.226913,1041.887451 49.777130,1042.346680 
z"/>
</svg>